<svg width="115" height="21" viewBox="0 0 115 21" fill="none" xmlns="http://www.w3.org/2000/svg">
<path fill-rule="evenodd" clip-rule="evenodd" d="M31.3046 10.2651C31.3271 10.248 31.3315 10.2158 31.3146 10.1936C29.8242 8.14672 27.8672 6.4568 25.5998 5.27893C23.3317 4.10105 20.7525 3.43521 18.0172 3.43521C8.95489 3.43521 1.60971 10.7423 1.60971 19.7552H0C0 9.02712 8.58323 0.330078 19.1709 0.330078C29.7586 0.330078 38.3419 9.02712 38.3419 19.7552H22.9794C22.9794 16.6596 20.4558 14.15 17.3439 14.15C14.2319 14.15 11.7083 16.6596 11.7083 19.7552H11.025C11.025 15.195 14.6735 11.4987 19.1728 11.4987C22.2935 11.4987 25.0045 13.2766 26.3737 15.8874C26.3856 15.9134 26.4156 15.9247 26.4412 15.9134C26.4661 15.9013 26.4774 15.8728 26.4668 15.8475C24.9739 12.5949 21.6758 10.3341 17.8461 10.3341C12.6147 10.3341 8.37397 14.5526 8.37397 19.7559H7.38454C7.38454 13.1601 12.6659 7.81253 19.1809 7.81253C23.1674 7.81253 26.6923 9.81511 28.8273 12.8804C28.8373 12.8937 28.8529 12.9006 28.8679 12.9006C28.8785 12.9006 28.8898 12.8975 28.8985 12.8905C28.9191 12.8747 28.9241 12.8456 28.9104 12.8228C26.6179 9.28662 22.6233 6.94479 18.0784 6.94479C10.9656 6.94479 5.19828 12.6804 5.19828 19.7559H3.91776C3.91776 11.2196 10.7545 4.29979 19.1878 4.29979C24.0825 4.29979 28.4388 6.63086 31.2334 10.2556C31.2503 10.2784 31.2821 10.2828 31.304 10.2658L31.3046 10.2651Z" fill="#1E0525"/>
<path fill-rule="evenodd" clip-rule="evenodd" d="M50.6591 1.42063C48.3879 1.42063 46.9731 2.65673 46.9731 4.48146C46.9731 6.30618 47.9606 7.30684 51.1863 8.69042C55.2015 10.3974 57.0779 11.7221 57.0779 14.7532C57.0779 17.7843 54.247 20.0508 49.9682 20.0508C46.0186 20.0508 43.4182 18.6381 43.0234 14.8709H44.3402C44.9655 17.8141 46.8413 18.6679 49.8039 18.6679C52.3056 18.6679 53.951 17.5197 53.951 15.3716C53.951 13.3994 52.9965 12.4873 49.3098 11.0747C45.5576 9.6031 44.0441 8.07268 44.0441 5.27641C44.0441 2.48014 46.4783 0.0370483 50.4286 0.0370483C53.588 0.0370483 55.7937 1.47949 56.2877 4.71691H54.971C54.4775 2.33267 52.8316 1.42063 50.6597 1.42063H50.6591ZM63.4317 0.331329H60.4984V19.7565H63.4317V0.331329ZM66.8529 0.331972V19.7565H78.4432V18.2849H69.7869V0.331972H66.8529ZM95.0561 0.331329V19.7552H93.4589L82.5995 5.0979V19.7552H81.0017V0.331329H82.5995L93.4589 14.9899V0.331329H95.0561ZM106.437 0.331329L113.121 16.6513L114.393 19.7571H111.193L110.237 17.371C109.341 15.5102 107.439 14.2241 105.288 14.2241C102.305 14.2241 99.8759 16.6241 99.7997 19.6134V19.616C99.7979 19.6627 99.7979 19.7101 99.7979 19.7562V19.7565H99.3744H97.6154L98.8353 16.7336L105.457 0.331329H106.437ZM101.536 14.2519C102.977 12.9602 104.938 12.2204 107.068 12.2202C107.453 12.2202 107.833 12.2487 108.203 12.3025L105.197 4.8308L101.68 13.8854L101.536 14.2519Z" fill="#1E0525"/>
</svg>
