<svg width="990" height="640" viewBox="0 0 990 640" fill="none" xmlns="http://www.w3.org/2000/svg">
<rect width="990" height="640" fill="#1E0525"/>
<rect x="153.301" y="288.408" width="372.06" height="63.72" stroke="#503C56" stroke-width="1.08"/>
<path fill-rule="evenodd" clip-rule="evenodd" d="M254.677 321.062C254.75 321.008 254.764 320.905 254.709 320.835C249.906 314.324 243.598 308.948 236.289 305.201C228.979 301.454 220.666 299.336 211.85 299.336C182.64 299.336 158.966 322.58 158.966 351.25H153.777C153.777 317.124 181.442 289.459 215.568 289.459C249.694 289.459 277.359 317.124 277.359 351.25H227.844C227.844 341.403 219.71 333.42 209.679 333.42C199.649 333.42 191.515 341.403 191.515 351.25H189.313C189.313 336.744 201.072 324.986 215.574 324.986C225.633 324.986 234.371 330.642 238.784 338.947C238.822 339.029 238.919 339.065 239.001 339.029C239.082 338.991 239.118 338.9 239.084 338.82C234.272 328.473 223.642 321.282 211.298 321.282C194.436 321.282 180.768 334.7 180.768 351.252H177.579C177.579 330.271 194.602 313.261 215.601 313.261C228.45 313.261 239.811 319.631 246.692 329.381C246.725 329.423 246.775 329.446 246.823 329.446C246.857 329.446 246.894 329.436 246.922 329.413C246.988 329.363 247.004 329.27 246.96 329.198C239.571 317.95 226.696 310.5 212.047 310.5C189.121 310.5 170.532 328.745 170.532 351.252H166.405C166.405 324.098 188.441 302.087 215.623 302.087C231.399 302.087 245.44 309.502 254.448 321.032C254.502 321.104 254.605 321.119 254.675 321.064L254.677 321.062Z" fill="white"/>
<path fill-rule="evenodd" clip-rule="evenodd" d="M317.056 292.928C309.736 292.928 305.176 296.86 305.176 302.665C305.176 308.469 308.359 311.652 318.755 316.054C331.697 321.483 337.745 325.697 337.745 335.339C337.745 344.981 328.621 352.191 314.829 352.191C302.099 352.191 293.718 347.697 292.445 335.714H296.689C298.705 345.076 304.751 347.792 314.3 347.792C322.363 347.792 327.666 344.139 327.666 337.306C327.666 331.033 324.59 328.131 312.707 323.638C300.613 318.957 295.735 314.089 295.735 305.194C295.735 296.299 303.581 288.527 316.313 288.527C326.497 288.527 333.606 293.116 335.198 303.414H330.954C329.364 295.83 324.059 292.928 317.058 292.928H317.056ZM358.227 289.464H348.772V351.255H358.227V289.464ZM369.252 289.467V351.256H406.609V346.575H378.709V289.467H369.252ZM460.155 289.464V351.251H455.007L420.006 304.627V351.251H414.856V289.464H420.006L455.007 336.093V289.464H460.155ZM496.835 289.464L518.38 341.378L522.479 351.257H512.166L509.084 343.667C506.197 337.748 500.066 333.657 493.134 333.657C483.517 333.657 475.689 341.291 475.443 350.8V350.808C475.437 350.957 475.437 351.107 475.437 351.254V351.255H474.072H468.403L472.335 341.64L493.676 289.464H496.835ZM481.04 333.745C485.683 329.636 492.005 327.283 498.872 327.283H498.87C500.113 327.283 501.335 327.373 502.529 327.544L492.839 303.777L481.503 332.58L481.04 333.745Z" fill="white"/>
<rect x="153.301" y="224.42" width="372.06" height="63.72" stroke="#503C56" stroke-width="1.08"/>
<rect x="153.301" y="351.859" width="372.06" height="63.72" stroke="#503C56" stroke-width="1.08"/>
<rect x="89.3125" y="224.42" width="63.72" height="63.72" fill="#895BE7" fill-opacity="0.08"/>
<rect x="89.3125" y="224.42" width="63.72" height="63.72" stroke="#503C56" stroke-width="1.08"/>
<path d="M118.315 259.908H116.407L120.165 254.534L116.684 249.567H118.665L121.199 253.31L123.777 249.567H125.67L122.175 254.519L125.947 259.908H123.952L121.141 255.786L118.315 259.908Z" fill="#895BE7"/>
<path d="M118.315 259.908H116.407L120.165 254.534L116.684 249.567H118.665L121.199 253.31L123.777 249.567H125.67L122.175 254.519L125.947 259.908H123.952L121.141 255.786L118.315 259.908Z" fill="#895BE7"/>
<rect x="89.3125" y="288.141" width="63.72" height="63.72" stroke="#503C56" stroke-width="1.08"/>
<path d="M118.315 325H116.407L120.165 319.626L116.684 314.659H118.665L121.199 318.402L123.777 314.659H125.67L122.175 319.611L125.947 325H123.952L121.141 320.878L118.315 325Z" fill="#895BE7"/>
<path d="M118.315 325H116.407L120.165 319.626L116.684 314.659H118.665L121.199 318.402L123.777 314.659H125.67L122.175 319.611L125.947 325H123.952L121.141 320.878L118.315 325Z" fill="#895BE7"/>
<rect x="89.3125" y="351.859" width="63.72" height="63.72" fill="#895BE7" fill-opacity="0.08"/>
<rect x="89.3125" y="351.859" width="63.72" height="63.72" stroke="#503C56" stroke-width="1.08"/>
<path d="M118.315 387.348H116.407L120.165 381.973L116.684 377.007H118.665L121.199 380.75L123.777 377.007H125.67L122.175 381.959L125.947 387.348H123.952L121.141 383.226L118.315 387.348Z" fill="#895BE7"/>
<path d="M118.315 387.348H116.407L120.165 381.973L116.684 377.007H118.665L121.199 380.75L123.777 377.007H125.67L122.175 381.959L125.947 387.348H123.952L121.141 383.226L118.315 387.348Z" fill="#895BE7"/>
<rect x="525.094" y="224.42" width="63.72" height="63.72" fill="#895BE7" fill-opacity="0.08"/>
<rect x="525.094" y="224.42" width="63.72" height="63.72" stroke="#503C56" stroke-width="1.08"/>
<path d="M554.092 259.908H552.184L555.942 254.534L552.461 249.567H554.442L556.976 253.31L559.554 249.567H561.448L557.952 254.519L561.724 259.908H559.729L556.918 255.786L554.092 259.908Z" fill="#895BE7"/>
<path d="M554.092 259.908H552.184L555.942 254.534L552.461 249.567H554.442L556.976 253.31L559.554 249.567H561.448L557.952 254.519L561.724 259.908H559.729L556.918 255.786L554.092 259.908Z" fill="#895BE7"/>
<rect x="525.094" y="288.141" width="63.72" height="63.72" stroke="#503C56" stroke-width="1.08"/>
<path d="M554.092 325H552.184L555.942 319.626L552.461 314.659H554.442L556.976 318.402L559.554 314.659H561.448L557.952 319.611L561.724 325H559.729L556.918 320.878L554.092 325Z" fill="#895BE7"/>
<path d="M554.092 325H552.184L555.942 319.626L552.461 314.659H554.442L556.976 318.402L559.554 314.659H561.448L557.952 319.611L561.724 325H559.729L556.918 320.878L554.092 325Z" fill="#895BE7"/>
<rect x="525.094" y="351.859" width="63.72" height="63.72" fill="#895BE7" fill-opacity="0.08"/>
<rect x="525.094" y="351.859" width="63.72" height="63.72" stroke="#503C56" stroke-width="1.08"/>
<path d="M554.092 387.348H552.184L555.942 381.973L552.461 377.007H554.442L556.976 380.75L559.554 377.007H561.448L557.952 381.959L561.724 387.348H559.729L556.918 383.226L554.092 387.348Z" fill="#895BE7"/>
<path d="M554.092 387.348H552.184L555.942 381.973L552.461 377.007H554.442L556.976 380.75L559.554 377.007H561.448L557.952 381.959L561.724 387.348H559.729L556.918 383.226L554.092 387.348Z" fill="#895BE7"/>
<rect x="712.949" y="288.219" width="123.66" height="63.72" stroke="#503C56" stroke-width="1.08"/>
<path d="M814.021 320.618C814.076 320.689 814.062 320.791 813.989 320.846C813.917 320.9 813.815 320.885 813.761 320.813C804.758 309.291 790.727 301.881 774.962 301.881C747.798 301.881 725.777 323.878 725.777 351.013H729.901C729.901 328.522 748.475 310.29 771.386 310.29C786.026 310.29 798.892 317.735 806.276 328.975C806.319 329.047 806.304 329.139 806.237 329.19C806.208 329.212 806.172 329.222 806.138 329.222C806.089 329.222 806.04 329.2 806.007 329.157C799.131 319.414 787.778 313.048 774.938 313.048C753.954 313.048 736.943 330.046 736.943 351.013H740.13C740.13 334.473 753.789 321.064 770.639 321.064C782.974 321.064 793.598 328.25 798.406 338.589C798.438 338.669 798.402 338.761 798.322 338.799C798.24 338.836 798.143 338.799 798.106 338.717C793.696 330.419 784.964 324.767 774.912 324.767C760.419 324.767 748.668 336.517 748.668 351.013H750.869C750.869 341.172 758.997 333.194 769.022 333.194C779.046 333.194 787.174 341.172 787.174 351.013H836.656C836.656 316.909 809.011 289.264 774.907 289.264C740.804 289.264 713.158 316.909 713.158 351.013H718.342C718.342 322.363 742.002 299.135 771.191 299.135C780.001 299.135 788.308 301.251 795.613 304.995C802.917 308.739 809.22 314.11 814.021 320.618Z" fill="white"/>
<rect x="712.949" y="224.496" width="123.66" height="63.72" stroke="#503C56" stroke-width="1.08"/>
<rect x="712.949" y="351.938" width="123.66" height="63.72" stroke="#503C56" stroke-width="1.08"/>
<rect x="836.965" y="224.34" width="63.72" height="63.72" fill="#895BE7" fill-opacity="0.08"/>
<rect x="836.965" y="224.34" width="63.72" height="63.72" stroke="#503C56" stroke-width="1.08"/>
<path d="M865.967 259.828H864.059L867.817 254.454L864.336 249.487H866.317L868.851 253.23L871.429 249.487H873.323L869.827 254.439L873.599 259.828H871.604L868.793 255.706L865.967 259.828Z" fill="#895BE7"/>
<path d="M865.967 259.828H864.059L867.817 254.454L864.336 249.487H866.317L868.851 253.23L871.429 249.487H873.323L869.827 254.439L873.599 259.828H871.604L868.793 255.706L865.967 259.828Z" fill="#895BE7"/>
<rect x="836.965" y="288.061" width="63.72" height="63.72" stroke="#503C56" stroke-width="1.08"/>
<path d="M865.967 325H864.059L867.817 319.626L864.336 314.659H866.317L868.851 318.402L871.429 314.659H873.323L869.827 319.611L873.599 325H871.604L868.793 320.878L865.967 325Z" fill="#895BE7"/>
<path d="M865.967 325H864.059L867.817 319.626L864.336 314.659H866.317L868.851 318.402L871.429 314.659H873.323L869.827 319.611L873.599 325H871.604L868.793 320.878L865.967 325Z" fill="#895BE7"/>
<rect x="836.965" y="351.779" width="63.72" height="63.72" fill="#895BE7" fill-opacity="0.08"/>
<rect x="836.965" y="351.779" width="63.72" height="63.72" stroke="#503C56" stroke-width="1.08"/>
<path d="M865.967 387.268H864.059L867.817 381.893L864.336 376.927H866.317L868.851 380.67L871.429 376.927H873.323L869.827 381.879L873.599 387.268H871.604L868.793 383.146L865.967 387.268Z" fill="#895BE7"/>
<path d="M865.967 387.268H864.059L867.817 381.893L864.336 376.927H866.317L868.851 380.67L871.429 376.927H873.323L869.827 381.879L873.599 387.268H871.604L868.793 383.146L865.967 387.268Z" fill="#895BE7"/>
<rect x="648.688" y="224.34" width="63.72" height="63.72" fill="#895BE7" fill-opacity="0.08"/>
<rect x="648.688" y="224.34" width="63.72" height="63.72" stroke="#503C56" stroke-width="1.08"/>
<path d="M677.682 259.828H675.774L679.532 254.454L676.051 249.487H678.032L680.566 253.23L683.144 249.487H685.037L681.542 254.439L685.314 259.828H683.319L680.508 255.706L677.682 259.828Z" fill="#895BE7"/>
<path d="M677.682 259.828H675.774L679.532 254.454L676.051 249.487H678.032L680.566 253.23L683.144 249.487H685.037L681.542 254.439L685.314 259.828H683.319L680.508 255.706L677.682 259.828Z" fill="#895BE7"/>
<rect x="648.688" y="288.061" width="63.72" height="63.72" stroke="#503C56" stroke-width="1.08"/>
<path d="M677.682 325H675.774L679.532 319.626L676.051 314.659H678.032L680.566 318.402L683.144 314.659H685.037L681.542 319.611L685.314 325H683.319L680.508 320.878L677.682 325Z" fill="#895BE7"/>
<path d="M677.682 325H675.774L679.532 319.626L676.051 314.659H678.032L680.566 318.402L683.144 314.659H685.037L681.542 319.611L685.314 325H683.319L680.508 320.878L677.682 325Z" fill="#895BE7"/>
<rect x="648.688" y="351.779" width="63.72" height="63.72" fill="#895BE7" fill-opacity="0.08"/>
<rect x="648.688" y="351.779" width="63.72" height="63.72" stroke="#503C56" stroke-width="1.08"/>
<path d="M677.682 387.268H675.774L679.532 381.893L676.051 376.927H678.032L680.566 380.67L683.144 376.927H685.037L681.542 381.879L685.314 387.268H683.319L680.508 383.146L677.682 387.268Z" fill="#895BE7"/>
<path d="M677.682 387.268H675.774L679.532 381.893L676.051 376.927H678.032L680.566 380.67L683.144 376.927H685.037L681.542 381.879L685.314 387.268H683.319L680.508 383.146L677.682 387.268Z" fill="#895BE7"/>
</svg>
