<svg width="990" height="640" viewBox="0 0 990 640" fill="none" xmlns="http://www.w3.org/2000/svg">
<mask id="path-1-inside-1_147_5611" fill="white">
<path d="M0 0H990V640H0V0Z"/>
</mask>
<path d="M0 0H990V640H0V0Z" fill="#FDF8F3"/>
<path d="M0.712743 640V0H-0.712743V640H0.712743Z" fill="#ECE5D8" mask="url(#path-1-inside-1_147_5611)"/>
<rect x="205.27" y="30.2699" width="579.46" height="579.46" rx="289.73" stroke="#32073E" stroke-width="0.712743"/>
<rect x="308.618" y="133.618" width="372.765" height="372.765" rx="186.382" stroke="#32073E" stroke-width="0.712743"/>
<rect x="423.727" y="248.726" width="142.549" height="142.549" rx="71.2743" fill="url(#paint0_radial_147_5611)"/>
<path d="M513.733 315.355C513.758 315.389 513.752 315.437 513.717 315.463C513.684 315.488 513.635 315.481 513.61 315.447C509.361 310.01 502.74 306.513 495.3 306.513C482.482 306.513 472.09 316.894 472.09 329.699H474.036C474.036 319.085 482.801 310.481 493.613 310.481C500.522 310.481 506.593 313.995 510.078 319.299C510.098 319.333 510.091 319.376 510.059 319.4C510.046 319.411 510.029 319.416 510.013 319.416C509.989 319.416 509.966 319.405 509.951 319.385C506.706 314.787 501.349 311.783 495.289 311.783C485.387 311.783 477.359 319.804 477.359 329.699H478.863C478.863 321.893 485.309 315.566 493.26 315.566C499.081 315.566 504.095 318.957 506.364 323.836C506.379 323.874 506.362 323.917 506.324 323.935C506.286 323.952 506.24 323.935 506.222 323.896C504.141 319.98 500.02 317.313 495.277 317.313C488.437 317.313 482.892 322.858 482.892 329.699H483.931C483.931 325.055 487.767 321.29 492.497 321.29C497.228 321.29 501.063 325.055 501.063 329.699H524.414C524.414 313.605 511.368 300.559 495.275 300.559C479.181 300.559 466.135 313.605 466.135 329.699H468.582C468.582 316.179 479.747 305.217 493.521 305.217C497.678 305.217 501.598 306.216 505.046 307.983C508.493 309.749 511.467 312.284 513.733 315.355Z" fill="#32073E"/>
<rect width="113.51" height="49.5097" transform="translate(438.246 112.592)" fill="white"/>
<path d="M454.975 141.266V132.439C454.975 130.82 454.838 129.908 454.291 129.109V128.995H460.244C465.512 128.995 468.911 132.143 468.911 136.91C468.911 141.676 465.512 144.847 460.244 144.847H454.291V144.733C454.907 143.934 454.975 142.954 454.975 141.266ZM457.712 130.774V143.068H459.651C463.391 143.068 465.923 141.243 465.923 136.91C465.923 132.599 463.391 130.774 459.651 130.774H457.712ZM477.509 134.15V134.036H480.611V134.15C479.949 134.811 479.584 135.678 479.128 136.887L475.502 146.215C474.407 149.043 472.856 149.728 471.26 149.728C470.621 149.728 470.051 149.591 469.549 149.317V147.241C470.051 147.447 470.598 147.561 471.168 147.561C472.377 147.561 473.358 147.105 473.974 145.462L474.11 145.12L470.781 136.887C470.302 135.678 469.959 134.925 469.321 134.15V134.036H473.153V134.15C472.833 134.857 473.016 135.655 473.449 136.818L475.296 141.654H475.411L477.235 136.841C477.646 135.724 477.874 134.811 477.509 134.15ZM481.861 142.247V136.932C481.861 135.655 481.702 135.017 481.268 134.401V134.287L484.325 133.967H484.393V135.61H484.507C485.237 134.401 486.309 133.739 487.632 133.739C489.662 133.739 491.167 135.176 491.167 137.936V142.247C491.167 143.524 491.281 144.117 491.646 144.733V144.847H488.156V144.733C488.544 144.117 488.612 143.524 488.612 142.247V138.004C488.612 136.431 487.905 135.632 486.788 135.632C485.625 135.632 484.393 136.636 484.393 138.575V142.247C484.393 143.524 484.484 144.117 484.872 144.733V144.847H481.382V144.733C481.77 144.117 481.861 143.524 481.861 142.247ZM502.996 143.341L503.178 144.505C502.563 144.938 501.97 145.12 501.263 145.12C500.054 145.12 499.164 144.345 499.096 143.273V143.25H498.982C498.275 144.527 497.134 145.143 495.88 145.143C494.283 145.143 492.961 144.048 492.961 142.338C492.961 140.445 494.671 139.624 496.975 139.031L499.073 138.506V137.822C499.073 136.225 497.91 135.632 496.655 135.632C495.561 135.632 494.512 136.043 493.554 136.613L493.257 135.29C494.306 134.446 495.789 133.739 497.34 133.739C499.506 133.739 501.582 134.788 501.582 137.936V142.589C501.582 143.227 501.833 143.501 502.312 143.501C502.54 143.501 502.791 143.433 502.996 143.341ZM496.815 143.296C497.819 143.296 499.073 142.406 499.073 140.559V139.829L497.613 140.308C496.268 140.741 495.538 141.152 495.538 142.019C495.538 142.862 496.131 143.296 496.815 143.296ZM504.593 142.201V136.955C504.593 135.678 504.456 135.017 504 134.401V134.287L507.056 133.967H507.124V135.61H507.238C507.945 134.378 509.063 133.739 510.386 133.739C511.686 133.739 512.803 134.446 513.328 135.86H513.442C514.172 134.538 515.289 133.739 516.749 133.739C518.688 133.739 520.17 135.222 520.17 137.776V142.178C520.17 143.478 520.239 144.094 520.649 144.733V144.847H517.16V144.733C517.57 144.094 517.639 143.478 517.639 142.178V137.913C517.639 136.362 516.977 135.632 515.928 135.632C514.696 135.632 513.67 136.704 513.67 138.483V142.224C513.67 143.524 513.738 144.094 514.149 144.733V144.847H510.659V144.733C511.024 144.094 511.138 143.524 511.138 142.224V137.89C511.138 136.431 510.568 135.632 509.451 135.632C508.287 135.632 507.124 136.75 507.124 138.506V142.201C507.124 143.478 507.215 144.094 507.603 144.733V144.847H504.114V144.733C504.524 144.094 504.593 143.478 504.593 142.201ZM524.185 132.211C523.25 132.211 522.52 131.481 522.52 130.523C522.52 129.634 523.25 128.904 524.185 128.904C525.075 128.904 525.804 129.634 525.804 130.523C525.804 131.481 525.075 132.211 524.185 132.211ZM525.417 133.967V142.201C525.417 143.524 525.485 144.094 525.896 144.733V144.847H522.406V144.733C522.794 144.094 522.885 143.524 522.885 142.201V136.796C522.885 135.632 522.725 135.017 522.292 134.401V134.287L525.348 133.967H525.417ZM532.958 145.143C529.559 145.143 527.301 142.726 527.301 139.464C527.301 136.18 529.696 133.739 533.14 133.739C534.258 133.739 535.284 133.99 536.082 134.424V136.727H535.968C535.421 135.952 534.44 135.404 533.391 135.404C531.293 135.404 529.924 136.887 529.924 139.168C529.924 141.608 531.407 143.09 533.642 143.09C534.691 143.09 535.626 142.771 536.47 142.224L536.766 143.478C535.717 144.573 534.44 145.143 532.958 145.143Z" fill="#32073E"/>
<rect width="99.5097" height="49.5097" transform="translate(445.602 473.24)" fill="white"/>
<path d="M476.506 489.643V489.757C475.958 490.556 475.799 491.445 475.799 493.11V502.028C475.799 503.67 475.958 504.582 476.506 505.381V505.495H472.377V505.381C472.925 504.582 473.062 503.67 473.062 502.028V498.424H465.079V502.028C465.079 503.67 465.216 504.582 465.763 505.381V505.495H461.635V505.381C462.182 504.582 462.342 503.67 462.342 502.028V493.11C462.342 491.445 462.182 490.556 461.635 489.757V489.643H465.763V489.757C465.216 490.556 465.079 491.445 465.079 493.11V496.577H473.062V493.11C473.062 491.445 472.925 490.556 472.377 489.757V489.643H476.506ZM482.101 505.791C480.254 505.791 478.749 504.4 478.749 501.731V497.398C478.749 496.098 478.635 495.414 478.247 494.798V494.684H481.303V501.823C481.303 503.259 482.01 503.875 482.968 503.875C484.131 503.875 485.272 502.803 485.272 500.865V497.398C485.272 496.121 485.158 495.436 484.747 494.798V494.684H487.826V502.598C487.826 503.83 487.94 504.491 488.305 505.084V505.221L485.34 505.54H485.294V503.898H485.18C484.542 505.038 483.47 505.791 482.101 505.791ZM490.698 502.849V497.603C490.698 496.326 490.561 495.664 490.105 495.049V494.935L493.161 494.615H493.23V496.257H493.344C494.051 495.026 495.168 494.387 496.491 494.387C497.791 494.387 498.909 495.094 499.433 496.508H499.547C500.277 495.186 501.395 494.387 502.855 494.387C504.793 494.387 506.276 495.87 506.276 498.424V502.826C506.276 504.126 506.344 504.742 506.755 505.381V505.495H503.265V505.381C503.676 504.742 503.744 504.126 503.744 502.826V498.561C503.744 497.01 503.083 496.28 502.034 496.28C500.802 496.28 499.776 497.352 499.776 499.131V502.872C499.776 504.172 499.844 504.742 500.255 505.381V505.495H496.765V505.381C497.13 504.742 497.244 504.172 497.244 502.872V498.538C497.244 497.079 496.674 496.28 495.556 496.28C494.393 496.28 493.23 497.398 493.23 499.154V502.849C493.23 504.126 493.321 504.742 493.709 505.381V505.495H490.219V505.381C490.63 504.742 490.698 504.126 490.698 502.849ZM518.114 503.989L518.296 505.153C517.68 505.586 517.087 505.768 516.38 505.768C515.172 505.768 514.282 504.993 514.214 503.921V503.898H514.1C513.393 505.175 512.252 505.791 510.998 505.791C509.401 505.791 508.078 504.696 508.078 502.986C508.078 501.093 509.789 500.272 512.092 499.679L514.191 499.154V498.47C514.191 496.873 513.028 496.28 511.773 496.28C510.678 496.28 509.629 496.691 508.671 497.261L508.375 495.938C509.424 495.094 510.906 494.387 512.457 494.387C514.624 494.387 516.7 495.436 516.7 498.584V503.237C516.7 503.875 516.951 504.149 517.429 504.149C517.658 504.149 517.908 504.081 518.114 503.989ZM511.933 503.944C512.936 503.944 514.191 503.054 514.191 501.207V500.477L512.731 500.956C511.385 501.389 510.656 501.8 510.656 502.666C510.656 503.51 511.249 503.944 511.933 503.944ZM519.71 502.895V497.58C519.71 496.303 519.551 495.664 519.117 495.049V494.935L522.173 494.615H522.242V496.257H522.356C523.086 495.049 524.158 494.387 525.481 494.387C527.511 494.387 529.016 495.824 529.016 498.584V502.895C529.016 504.172 529.13 504.765 529.495 505.381V505.495H526.005V505.381C526.393 504.765 526.461 504.172 526.461 502.895V498.652C526.461 497.079 525.754 496.28 524.637 496.28C523.474 496.28 522.242 497.284 522.242 499.222V502.895C522.242 504.172 522.333 504.765 522.721 505.381V505.495H519.231V505.381C519.619 504.765 519.71 504.172 519.71 502.895Z" fill="#32073E"/>
<rect width="143.51" height="49.5097" transform="translate(606.902 290.778)" fill="white"/>
<path d="M628.269 316.783H626.307V319.543C626.307 321.162 626.444 322.12 627.106 322.918V323.032H622.863V322.918C623.434 322.12 623.57 321.162 623.57 319.566V310.602C623.57 309.051 623.411 308.071 622.863 307.295V307.181H628.269C631.827 307.181 634.336 308.892 634.336 311.948C634.336 315.004 631.827 316.783 628.269 316.783ZM627.949 308.96H626.307V315.027H627.949C630.162 315.027 631.485 314.023 631.485 311.948C631.485 309.872 630.162 308.96 627.949 308.96ZM635.861 320.41V315.118C635.861 313.864 635.747 313.202 635.291 312.587V312.472L638.325 312.153H638.416V314.981H638.507C639.054 312.997 640.081 311.925 641.677 311.925C641.997 311.925 642.247 311.948 642.498 312.016V314.594C642.156 314.48 641.86 314.457 641.472 314.457C639.967 314.457 638.416 315.597 638.416 318.471V320.41C638.416 321.687 638.484 322.28 638.963 322.918V323.032H635.382V322.918C635.77 322.28 635.861 321.71 635.861 320.41ZM648.315 323.329C645.122 323.329 642.75 320.957 642.75 317.604C642.75 314.274 645.122 311.925 648.315 311.925C651.508 311.925 653.88 314.251 653.88 317.604C653.88 320.957 651.508 323.329 648.315 323.329ZM648.315 321.596C650.048 321.596 651.166 320.09 651.166 317.604C651.166 315.118 650.048 313.658 648.315 313.658C646.581 313.658 645.487 315.141 645.487 317.604C645.487 320.067 646.559 321.596 648.315 321.596ZM656.016 323.032V322.918C656.427 322.28 656.518 321.664 656.518 320.341V313.932H654.237V312.222H656.518V310.922C656.518 308.071 658.434 306.542 660.966 306.542C661.764 306.542 662.516 306.679 663.018 306.885V309.051H662.904C662.539 308.595 661.855 308.23 661.102 308.23C659.916 308.23 659.072 308.869 659.072 310.397V312.222H661.923V313.932H659.072V320.341C659.072 321.641 659.118 322.28 659.643 322.918V323.032H656.016ZM671.848 320.318L672.167 321.573C671.073 322.736 669.704 323.329 668.13 323.329C664.914 323.329 662.474 321.094 662.474 317.536C662.474 314.366 664.709 311.925 667.629 311.925C670.206 311.925 672.031 313.567 672.031 316.509V317.422H665.006C665.165 320.067 666.739 321.276 668.815 321.276C669.909 321.276 670.89 320.957 671.848 320.318ZM667.446 313.453C666.215 313.453 665.302 314.343 665.051 315.962H669.544C669.499 314.366 668.701 313.453 667.446 313.453ZM676.638 323.329C675.429 323.329 674.221 322.964 673.308 322.325V320.045H673.445C674.289 321.139 675.384 321.664 676.524 321.664C677.551 321.664 678.531 321.253 678.531 320.341C678.531 319.703 678.098 319.406 677.231 319.041L675.657 318.357C674.152 317.695 673.468 316.692 673.468 315.415C673.468 313.408 675.224 311.925 677.619 311.925C678.691 311.925 679.74 312.199 680.516 312.632V314.89H680.379C679.808 314.069 678.805 313.567 677.665 313.567C676.57 313.567 675.68 314.046 675.68 314.89C675.68 315.552 676.091 315.894 676.98 316.259L678.691 316.988C680.082 317.581 680.812 318.471 680.812 319.839C680.812 321.938 678.919 323.329 676.638 323.329ZM685.353 323.329C684.144 323.329 682.936 322.964 682.023 322.325V320.045H682.16C683.004 321.139 684.099 321.664 685.239 321.664C686.266 321.664 687.246 321.253 687.246 320.341C687.246 319.703 686.813 319.406 685.946 319.041L684.373 318.357C682.867 317.695 682.183 316.692 682.183 315.415C682.183 313.408 683.939 311.925 686.334 311.925C687.406 311.925 688.455 312.199 689.231 312.632V314.89H689.094C688.524 314.069 687.52 313.567 686.38 313.567C685.285 313.567 684.395 314.046 684.395 314.89C684.395 315.552 684.806 315.894 685.695 316.259L687.406 316.988C688.797 317.581 689.527 318.471 689.527 319.839C689.527 321.938 687.634 323.329 685.353 323.329ZM692.86 310.397C691.924 310.397 691.195 309.667 691.195 308.709C691.195 307.82 691.924 307.09 692.86 307.09C693.749 307.09 694.479 307.82 694.479 308.709C694.479 309.667 693.749 310.397 692.86 310.397ZM694.091 312.153V320.387C694.091 321.71 694.16 322.28 694.57 322.918V323.032H691.081V322.918C691.468 322.28 691.559 321.71 691.559 320.387V314.981C691.559 313.818 691.4 313.202 690.966 312.587V312.472L694.023 312.153H694.091ZM701.541 323.329C698.348 323.329 695.976 320.957 695.976 317.604C695.976 314.274 698.348 311.925 701.541 311.925C704.734 311.925 707.106 314.251 707.106 317.604C707.106 320.957 704.734 323.329 701.541 323.329ZM701.541 321.596C703.274 321.596 704.392 320.09 704.392 317.604C704.392 315.118 703.274 313.658 701.541 313.658C699.807 313.658 698.713 315.141 698.713 317.604C698.713 320.067 699.785 321.596 701.541 321.596ZM709.056 320.432V315.118C709.056 313.841 708.897 313.202 708.463 312.587V312.472L711.52 312.153H711.588V313.795H711.702C712.432 312.587 713.504 311.925 714.827 311.925C716.857 311.925 718.362 313.362 718.362 316.122V320.432C718.362 321.71 718.476 322.303 718.841 322.918V323.032H715.351V322.918C715.739 322.303 715.808 321.71 715.808 320.432V316.19C715.808 314.616 715.1 313.818 713.983 313.818C712.82 313.818 711.588 314.822 711.588 316.76V320.432C711.588 321.71 711.679 322.303 712.067 322.918V323.032H708.577V322.918C708.965 322.303 709.056 321.71 709.056 320.432ZM730.191 321.527L730.374 322.69C729.758 323.124 729.165 323.306 728.458 323.306C727.249 323.306 726.359 322.531 726.291 321.459V321.436H726.177C725.47 322.713 724.329 323.329 723.075 323.329C721.478 323.329 720.156 322.234 720.156 320.524C720.156 318.631 721.866 317.809 724.17 317.216L726.268 316.692V316.008C726.268 314.411 725.105 313.818 723.85 313.818C722.756 313.818 721.707 314.229 720.749 314.799L720.452 313.476C721.501 312.632 722.984 311.925 724.535 311.925C726.701 311.925 728.777 312.974 728.777 316.122V320.775C728.777 321.413 729.028 321.687 729.507 321.687C729.735 321.687 729.986 321.618 730.191 321.527ZM724.01 321.482C725.014 321.482 726.268 320.592 726.268 318.745V318.015L724.808 318.494C723.463 318.927 722.733 319.338 722.733 320.204C722.733 321.048 723.326 321.482 724.01 321.482ZM731.24 323.032V322.918C731.628 322.303 731.719 321.664 731.719 320.364V309.781C731.719 308.458 731.628 307.934 731.149 307.204V307.09L734.205 306.771H734.274V320.364C734.274 321.664 734.319 322.303 734.73 322.918V323.032H731.24Z" fill="#32073E"/>
<rect width="93.5097" height="49.5097" transform="translate(265.496 290.778)" fill="white"/>
<path d="M285.685 323.329C283.951 323.329 282.286 322.782 280.986 321.801V318.813H281.123C282.332 320.615 283.974 321.459 285.594 321.459C287.122 321.459 288.581 320.683 288.581 319.11C288.581 318.015 287.897 317.399 286.574 316.806L284.476 315.825C282.378 314.867 281.351 313.43 281.351 311.629C281.351 308.96 283.678 306.885 286.894 306.885C288.467 306.885 289.927 307.341 290.839 307.957V310.83H290.702C289.859 309.462 288.422 308.732 286.939 308.732C285.297 308.732 284.02 309.576 284.02 311.081C284.02 312.062 284.567 312.769 285.958 313.408L288.171 314.434C290.178 315.346 291.273 316.601 291.273 318.562C291.273 321.39 288.809 323.329 285.685 323.329ZM294.651 310.397C293.716 310.397 292.986 309.667 292.986 308.709C292.986 307.82 293.716 307.09 294.651 307.09C295.54 307.09 296.27 307.82 296.27 308.709C296.27 309.667 295.54 310.397 294.651 310.397ZM295.882 312.153V320.387C295.882 321.71 295.951 322.28 296.361 322.918V323.032H292.872V322.918C293.259 322.28 293.351 321.71 293.351 320.387V314.981C293.351 313.818 293.191 313.202 292.758 312.587V312.472L295.814 312.153H295.882ZM298.725 320.387V315.141C298.725 313.864 298.588 313.202 298.132 312.587V312.472L301.188 312.153H301.256V313.795H301.37C302.077 312.564 303.195 311.925 304.518 311.925C305.818 311.925 306.936 312.632 307.46 314.046H307.574C308.304 312.723 309.422 311.925 310.881 311.925C312.82 311.925 314.302 313.408 314.302 315.962V320.364C314.302 321.664 314.371 322.28 314.781 322.918V323.032H311.292V322.918C311.702 322.28 311.771 321.664 311.771 320.364V316.099C311.771 314.548 311.109 313.818 310.06 313.818C308.829 313.818 307.802 314.89 307.802 316.669V320.41C307.802 321.71 307.871 322.28 308.281 322.918V323.032H304.792V322.918C305.157 322.28 305.271 321.71 305.271 320.41V316.076C305.271 314.616 304.7 313.818 303.583 313.818C302.42 313.818 301.256 314.936 301.256 316.692V320.387C301.256 321.664 301.348 322.28 301.735 322.918V323.032H298.246V322.918C298.656 322.28 298.725 321.664 298.725 320.387ZM316.972 324.948V315.118C316.972 313.864 316.858 313.202 316.401 312.587V312.472L319.435 312.153H319.503V313.795H319.617C320.37 312.609 321.488 311.925 322.993 311.925C325.502 311.925 327.646 314.069 327.646 317.467C327.646 321.094 325.274 323.329 322.514 323.329C321.374 323.329 320.302 322.873 319.617 321.983H319.503V324.948C319.503 326.271 319.572 326.864 320.051 327.48V327.594H316.493V327.48C316.88 326.864 316.972 326.271 316.972 324.948ZM322.103 321.71C323.882 321.71 325.023 320.045 325.023 317.673C325.023 315.323 323.928 313.795 322.195 313.795C320.712 313.795 319.503 315.05 319.503 316.874V318.243C319.503 320.455 320.53 321.71 322.103 321.71ZM329.083 323.032V322.918C329.47 322.303 329.562 321.664 329.562 320.364V309.781C329.562 308.458 329.47 307.934 328.992 307.204V307.09L332.048 306.771H332.116V320.364C332.116 321.664 332.162 322.303 332.572 322.918V323.032H329.083ZM343.353 320.318L343.673 321.573C342.578 322.736 341.21 323.329 339.636 323.329C336.42 323.329 333.979 321.094 333.979 317.536C333.979 314.366 336.215 311.925 339.134 311.925C341.711 311.925 343.536 313.567 343.536 316.509V317.422H336.511C336.671 320.067 338.245 321.276 340.32 321.276C341.415 321.276 342.396 320.957 343.353 320.318ZM338.952 313.453C337.72 313.453 336.808 314.343 336.557 315.962H341.05C341.004 314.366 340.206 313.453 338.952 313.453Z" fill="#32073E"/>
<defs>
<radialGradient id="paint0_radial_147_5611" cx="0" cy="0" r="1" gradientUnits="userSpaceOnUse" gradientTransform="translate(495.001 320) rotate(90) scale(106.584)">
<stop offset="0.343925" stop-color="#FFEADA"/>
<stop offset="0.541726" stop-color="#FFB5AC"/>
<stop offset="0.853121" stop-color="#CB71C7"/>
</radialGradient>
</defs>
</svg>
