<svg width="1150" height="900" viewBox="0 0 1150 900" fill="none" xmlns="http://www.w3.org/2000/svg">
<g clip-path="url(#clip0_172_6322)">
<rect width="1150" height="900" fill="#F1F1F1"/>
<g clip-path="url(#clip1_172_6322)">
<rect width="1152" height="900" transform="translate(-1)" fill="#32073E"/>
<g filter="url(#filter0_f_172_6322)">
<ellipse cx="574.999" cy="1019.1" rx="721.8" ry="593.7" fill="#8C5FB9"/>
</g>
<g filter="url(#filter1_f_172_6322)">
<ellipse cx="575.298" cy="899.5" rx="675.9" ry="328.5" fill="#FFCDFF" fill-opacity="0.8"/>
</g>
<g opacity="0.9" filter="url(#filter2_f_172_6322)">
<ellipse cx="575.3" cy="922.899" rx="633.3" ry="245.7" fill="#FFB49D"/>
</g>
<g filter="url(#filter3_f_172_6322)">
<ellipse cx="575.125" cy="980.821" rx="783.02" ry="123.86" fill="#E8CBD5"/>
</g>
<path d="M278.32 441V440.616C280.72 437.256 281.296 433.128 281.296 426.12V378.024L279.088 374.472V374.28H293.008L326.704 427.56H327.184V389.064C327.184 382.056 326.608 377.928 324.112 374.664V374.28H337.552V374.664C335.152 377.928 334.48 382.056 334.48 389.064V441H324.496L289.168 385.416H288.688V426.12C288.688 433.128 289.36 437.256 291.76 440.616V441H278.32ZM365.592 442.152C352.44 442.152 342.648 432.168 342.648 418.152C342.648 404.232 352.44 394.344 365.592 394.344C378.648 394.344 388.344 404.136 388.344 418.152C388.344 432.168 378.648 442.152 365.592 442.152ZM365.592 435.72C373.464 435.72 378.744 429.096 378.744 418.152C378.744 407.304 373.464 400.776 365.592 400.776C357.432 400.776 352.248 407.496 352.248 418.152C352.248 428.904 357.336 435.72 365.592 435.72ZM409.535 428.136H409.919L419.711 399.144L418.367 395.496H427.487L437.759 428.616H438.239L444.767 407.592C446.399 402.216 446.975 398.856 445.727 395.88V395.496H457.151V395.88C454.463 399.048 453.023 402.408 451.295 407.784L440.447 441H433.727L423.263 407.688H422.879L411.455 441H404.831L394.175 407.496C392.639 402.504 391.295 398.76 388.703 395.88V395.496H402.623V395.88C401.087 398.76 401.759 402.216 403.295 407.496L409.535 428.136ZM461.407 429.096C465.535 429.096 468.607 432.264 468.607 436.584C468.607 439.464 467.647 441.672 465.919 444.936L459.583 456.456H454.495L462.559 442.152H461.791C457.951 442.152 454.783 439.56 454.783 435.624C454.783 431.784 457.759 429.096 461.407 429.096ZM491.536 441V440.616C493.36 437.928 493.648 435.144 493.648 429.672V384.36C493.648 378.696 493.168 376.968 491.248 374.28V373.704L502.192 372.552H502.48V429.672C502.48 435.144 502.768 437.928 504.496 440.616V441H491.536ZM548.741 430.344L549.797 435.048C545.285 439.656 539.813 442.152 533.093 442.152C519.941 442.152 509.861 432.744 509.861 417.96C509.861 404.424 518.885 394.344 531.077 394.344C541.541 394.344 549.221 400.968 549.221 413.352V417H518.693C519.077 428.52 525.701 434.664 535.397 434.664C540.485 434.664 544.517 433.224 548.741 430.344ZM530.501 400.2C524.165 400.2 520.229 404.328 519.077 411.336H540.293C540.101 404.328 536.261 400.2 530.501 400.2ZM572.085 442.152C564.693 442.152 559.509 437.928 559.509 428.712V401.832H550.197V396.264C559.413 396.072 560.853 394.44 561.237 384.264H568.341V395.496H581.205V401.832H568.341V428.424C568.341 433.32 570.357 435.528 574.677 435.528C576.789 435.528 578.805 435.144 580.821 434.088L581.781 438.888C579.093 440.904 575.733 442.152 572.085 442.152ZM592.082 400.872H586.418L584.978 374.28H593.522L592.082 400.872ZM611.424 442.152C606.432 442.152 601.248 440.52 597.504 437.832V429.096H597.984C601.632 433.8 606.432 436.008 611.328 436.008C615.84 436.008 620.256 434.088 620.256 429.768C620.256 426.696 618.336 425.352 614.016 423.432L607.296 420.552C601.248 417.864 598.368 413.736 598.368 408.456C598.368 400.392 605.472 394.344 614.976 394.344C619.392 394.344 623.904 395.496 627.168 397.32V405.96H626.688C624 402.408 619.776 400.488 615.168 400.488C610.368 400.488 606.336 402.696 606.336 406.632C606.336 409.608 608.064 411.336 612.384 413.16L619.488 416.136C625.344 418.536 628.32 422.28 628.32 427.944C628.32 436.488 620.832 442.152 611.424 442.152ZM674.808 442.152C660.888 442.152 651.48 431.976 651.48 418.44C651.48 404.616 661.272 394.344 675.192 394.344C679.704 394.344 684.216 395.4 687.672 397.224V406.152H687.096C684.696 402.792 680.472 400.488 675.96 400.488C666.648 400.488 660.696 407.4 660.696 417.288C660.696 428.136 667.416 434.664 677.016 434.664C681.528 434.664 685.464 433.32 689.208 430.92L690.36 435.528C686.04 439.752 680.76 442.152 674.808 442.152ZM696.665 429.864V407.496C696.665 402.024 696.089 399.432 694.265 396.936V396.36L705.209 395.208H705.497V406.728H705.977C708.473 398.28 712.793 394.344 719.225 394.344C720.665 394.344 721.721 394.536 722.777 394.728V403.56C721.529 403.176 720.377 403.08 719.033 403.08C712.121 403.08 705.497 408.84 705.497 421.128V429.864C705.497 435.336 705.785 437.928 707.897 440.616V441H694.553V440.616C696.377 437.928 696.665 435.336 696.665 429.864ZM761.876 430.344L762.932 435.048C758.42 439.656 752.948 442.152 746.228 442.152C733.076 442.152 722.996 432.744 722.996 417.96C722.996 404.424 732.02 394.344 744.212 394.344C754.676 394.344 762.356 400.968 762.356 413.352V417H731.828C732.212 428.52 738.836 434.664 748.532 434.664C753.62 434.664 757.652 433.224 761.876 430.344ZM743.636 400.2C737.3 400.2 733.364 404.328 732.212 411.336H753.428C753.236 404.328 749.396 400.2 743.636 400.2ZM808.056 435.336L808.728 439.752C806.616 441.288 804.312 442.056 801.432 442.056C797.016 442.056 793.368 439.08 793.08 434.376V434.184H792.696C789.144 439.752 784.344 442.152 779.064 442.152C772.248 442.152 766.776 437.448 766.776 430.632C766.776 422.856 773.496 419.304 783.384 416.712L792.984 414.216V411.24C792.984 404.04 788.376 401.256 782.52 401.256C777.912 401.256 773.4 402.888 768.984 405.672L768.024 400.776C772.44 397.032 778.392 394.344 784.824 394.344C794.328 394.344 801.72 399.528 801.72 411.528V431.976C801.72 434.856 802.968 436.008 805.08 436.008C806.136 436.008 807.096 435.72 808.056 435.336ZM782.136 435.432C786.936 435.432 792.984 430.92 792.984 423.144V419.304L785.784 421.608C779.544 423.624 775.992 425.448 775.992 429.576C775.992 433.32 778.776 435.432 782.136 435.432ZM828.525 442.152C821.133 442.152 815.949 437.928 815.949 428.712V401.832H806.637V396.264C815.853 396.072 817.293 394.44 817.677 384.264H824.781V395.496H837.645V401.832H824.781V428.424C824.781 433.32 826.797 435.528 831.117 435.528C833.229 435.528 835.245 435.144 837.261 434.088L838.221 438.888C835.533 440.904 832.173 442.152 828.525 442.152ZM877.916 430.344L878.972 435.048C874.46 439.656 868.988 442.152 862.268 442.152C849.116 442.152 839.036 432.744 839.036 417.96C839.036 404.424 848.06 394.344 860.252 394.344C870.716 394.344 878.396 400.968 878.396 413.352V417H847.868C848.252 428.52 854.876 434.664 864.572 434.664C869.66 434.664 873.692 433.224 877.916 430.344ZM859.676 400.2C853.34 400.2 849.404 404.328 848.252 411.336H869.468C869.276 404.328 865.436 400.2 859.676 400.2ZM214.601 528.152C209.609 528.152 204.425 526.52 200.681 523.832V515.096H201.161C204.809 519.8 209.609 522.008 214.505 522.008C219.017 522.008 223.433 520.088 223.433 515.768C223.433 512.696 221.513 511.352 217.193 509.432L210.473 506.552C204.425 503.864 201.545 499.736 201.545 494.456C201.545 486.392 208.649 480.344 218.153 480.344C222.569 480.344 227.081 481.496 230.345 483.32V491.96H229.865C227.177 488.408 222.953 486.488 218.345 486.488C213.545 486.488 209.513 488.696 209.513 492.632C209.513 495.608 211.241 497.336 215.561 499.16L222.665 502.136C228.521 504.536 231.497 508.28 231.497 513.944C231.497 522.488 224.009 528.152 214.601 528.152ZM258.296 528.152C245.144 528.152 235.352 518.168 235.352 504.152C235.352 490.232 245.144 480.344 258.296 480.344C271.352 480.344 281.048 490.136 281.048 504.152C281.048 518.168 271.352 528.152 258.296 528.152ZM258.296 521.72C266.168 521.72 271.448 515.096 271.448 504.152C271.448 493.304 266.168 486.776 258.296 486.776C250.136 486.776 244.952 493.496 244.952 504.152C244.952 514.904 250.04 521.72 258.296 521.72ZM288.787 515.768V493.496C288.787 488.024 288.211 485.528 286.387 482.936V482.36L297.331 481.208H297.619V488.312H298.099C301.267 483.032 306.067 480.344 311.731 480.344C317.395 480.344 322.195 483.416 324.403 489.464H324.787C328.147 483.512 333.139 480.344 338.995 480.344C347.059 480.344 353.299 486.296 353.299 497.048V515.672C353.299 521.144 353.587 523.928 355.411 526.616V527H342.451V526.616C344.179 523.928 344.467 521.144 344.467 515.672V497.624C344.467 490.616 341.299 487.352 336.403 487.352C330.835 487.352 325.651 492.536 325.651 500.408V515.864C325.651 521.336 325.939 523.928 327.763 526.616V527H314.707V526.616C316.339 523.928 316.723 521.336 316.723 515.864V497.528C316.723 490.904 314.035 487.352 308.659 487.352C302.995 487.352 297.619 492.536 297.619 500.312V515.768C297.619 521.144 297.907 523.832 299.635 526.616V527H286.675V526.616C288.595 523.832 288.787 521.144 288.787 515.768ZM399.092 516.344L400.148 521.048C395.636 525.656 390.164 528.152 383.444 528.152C370.292 528.152 360.212 518.744 360.212 503.96C360.212 490.424 369.236 480.344 381.428 480.344C391.892 480.344 399.572 486.968 399.572 499.352V503H369.044C369.428 514.52 376.052 520.664 385.748 520.664C390.836 520.664 394.868 519.224 399.092 516.344ZM380.852 486.2C374.516 486.2 370.58 490.328 369.428 497.336H390.644C390.452 490.328 386.612 486.2 380.852 486.2ZM422.435 528.152C415.043 528.152 409.859 523.928 409.859 514.712V487.832H400.547V482.264C409.763 482.072 411.203 480.44 411.587 470.264H418.691V481.496H431.555V487.832H418.691V514.424C418.691 519.32 420.707 521.528 425.027 521.528C427.139 521.528 429.155 521.144 431.171 520.088L432.131 524.888C429.443 526.904 426.083 528.152 422.435 528.152ZM437.633 515.672V471.224C437.633 465.848 437.057 462.776 435.233 460.184V459.704L446.177 458.552H446.465V488.216H446.945C450.209 483.224 454.721 480.344 460.577 480.344C468.929 480.344 475.457 486.2 475.457 497.72V515.672C475.457 521.144 475.745 523.928 477.569 526.616V527H464.609V526.616C466.241 523.928 466.529 521.144 466.529 515.672V497.912C466.529 491 463.265 487.352 457.889 487.352C452.033 487.352 446.465 492.632 446.465 500.504V515.672C446.465 521.144 446.849 523.928 448.577 526.616V527H435.617V526.616C437.441 523.928 437.633 521.144 437.633 515.672ZM490.892 473.144C487.244 473.144 484.556 470.36 484.556 466.808C484.556 463.448 487.244 460.568 490.892 460.568C494.156 460.568 496.94 463.448 496.94 466.808C496.94 470.36 494.252 473.144 490.892 473.144ZM495.308 481.208V515.768C495.308 521.24 495.596 523.928 497.42 526.616V527H484.46V526.616C486.284 523.928 486.476 521.24 486.476 515.768V493.016C486.476 488.024 485.9 485.432 484.076 482.936V482.36L495.02 481.208H495.308ZM506.903 515.768V493.496C506.903 488.024 506.327 485.432 504.503 482.936V482.36L515.543 481.208H515.831V488.216H516.215C519.575 483.128 524.183 480.344 529.655 480.344C538.199 480.344 544.727 486.2 544.727 497.72V515.768C544.727 521.24 545.015 523.832 546.839 526.616V527H533.879V526.616C535.607 523.832 535.895 521.24 535.895 515.768V497.912C535.895 490.904 532.343 487.352 527.255 487.352C521.495 487.352 515.831 492.344 515.831 500.504V515.768C515.831 521.24 516.215 523.928 517.847 526.616V527H504.887V526.616C506.711 523.928 506.903 521.24 506.903 515.768ZM596.448 479.576V487.448L585.984 487.352V487.736C588.096 489.464 589.632 492.344 589.632 495.992C589.632 504.92 582.336 511.544 571.776 511.544C568.992 511.544 566.4 511.064 564.096 510.296C561.312 511.448 559.584 513.176 559.584 515.576C559.584 517.784 561.312 519.416 565.248 519.416H579.456C589.632 519.416 595.968 523.352 595.968 530.936C595.968 540.92 585.12 547.544 570.528 547.544C556.896 547.544 549.792 542.072 549.792 535.352C549.792 531.512 552.48 528.248 556.8 525.752V525.464C553.728 523.832 552.096 521.048 552.096 517.976C552.096 514.136 554.496 510.488 559.296 507.992V507.704C555.744 504.92 553.632 500.792 553.632 495.992C553.632 486.68 561.12 480.344 571.776 480.344C573.888 480.344 576.096 480.632 578.4 481.4L596.256 479.576H596.448ZM571.68 505.976C577.152 505.976 581.088 502.232 581.088 495.992C581.088 489.656 577.152 485.816 571.68 485.816C566.4 485.816 562.464 489.656 562.464 495.992C562.464 502.232 566.4 505.976 571.68 505.976ZM578.592 527H563.328C560.16 528.44 557.856 530.84 557.856 533.816C557.856 538.616 562.368 541.88 570.816 541.88C579.264 541.88 587.136 538.52 587.136 532.76C587.136 528.824 584.352 527 578.592 527ZM659.352 521.336L660.024 525.752C657.912 527.288 655.608 528.056 652.728 528.056C648.312 528.056 644.664 525.08 644.376 520.376V520.184H643.992C640.44 525.752 635.64 528.152 630.36 528.152C623.544 528.152 618.072 523.448 618.072 516.632C618.072 508.856 624.792 505.304 634.68 502.712L644.28 500.216V497.24C644.28 490.04 639.672 487.256 633.816 487.256C629.208 487.256 624.696 488.888 620.28 491.672L619.32 486.776C623.736 483.032 629.688 480.344 636.12 480.344C645.624 480.344 653.016 485.528 653.016 497.528V517.976C653.016 520.856 654.264 522.008 656.376 522.008C657.432 522.008 658.392 521.72 659.352 521.336ZM633.432 521.432C638.232 521.432 644.28 516.92 644.28 509.144V505.304L637.08 507.608C630.84 509.624 627.288 511.448 627.288 515.576C627.288 519.32 630.072 521.432 633.432 521.432ZM665.219 515.768V493.496C665.219 488.024 664.643 485.528 662.819 482.936V482.36L673.763 481.208H674.051V488.312H674.531C677.699 483.032 682.499 480.344 688.163 480.344C693.827 480.344 698.627 483.416 700.835 489.464H701.219C704.579 483.512 709.571 480.344 715.427 480.344C723.491 480.344 729.731 486.296 729.731 497.048V515.672C729.731 521.144 730.019 523.928 731.843 526.616V527H718.883V526.616C720.611 523.928 720.899 521.144 720.899 515.672V497.624C720.899 490.616 717.731 487.352 712.835 487.352C707.267 487.352 702.083 492.536 702.083 500.408V515.864C702.083 521.336 702.371 523.928 704.195 526.616V527H691.139V526.616C692.771 523.928 693.155 521.336 693.155 515.864V497.528C693.155 490.904 690.467 487.352 685.091 487.352C679.427 487.352 674.051 492.536 674.051 500.312V515.768C674.051 521.144 674.339 523.832 676.067 526.616V527H663.107V526.616C665.027 523.832 665.219 521.144 665.219 515.768ZM778.212 521.336L778.884 525.752C776.772 527.288 774.468 528.056 771.588 528.056C767.172 528.056 763.524 525.08 763.236 520.376V520.184H762.852C759.3 525.752 754.5 528.152 749.22 528.152C742.404 528.152 736.932 523.448 736.932 516.632C736.932 508.856 743.652 505.304 753.54 502.712L763.14 500.216V497.24C763.14 490.04 758.532 487.256 752.676 487.256C748.068 487.256 743.556 488.888 739.14 491.672L738.18 486.776C742.596 483.032 748.548 480.344 754.98 480.344C764.484 480.344 771.876 485.528 771.876 497.528V517.976C771.876 520.856 773.124 522.008 775.236 522.008C776.292 522.008 777.252 521.72 778.212 521.336ZM752.292 521.432C757.092 521.432 763.14 516.92 763.14 509.144V505.304L755.94 507.608C749.7 509.624 746.148 511.448 746.148 515.576C746.148 519.32 748.932 521.432 752.292 521.432ZM802.799 520.856C809.135 520.856 812.591 520.088 815.183 516.728H815.663V527H779.471V521.144L803.951 488.024V487.544H793.295C787.343 487.544 783.407 488.312 781.103 491H780.623V481.496H814.703V487.352L790.127 520.472V520.856H802.799ZM827.394 473.144C823.746 473.144 821.058 470.36 821.058 466.808C821.058 463.448 823.746 460.568 827.394 460.568C830.658 460.568 833.442 463.448 833.442 466.808C833.442 470.36 830.754 473.144 827.394 473.144ZM831.81 481.208V515.768C831.81 521.24 832.098 523.928 833.922 526.616V527H820.962V526.616C822.786 523.928 822.978 521.24 822.978 515.768V493.016C822.978 488.024 822.402 485.432 820.578 482.936V482.36L831.522 481.208H831.81ZM843.406 515.768V493.496C843.406 488.024 842.83 485.432 841.006 482.936V482.36L852.046 481.208H852.334V488.216H852.718C856.078 483.128 860.686 480.344 866.158 480.344C874.702 480.344 881.23 486.2 881.23 497.72V515.768C881.23 521.24 881.518 523.832 883.342 526.616V527H870.382V526.616C872.11 523.832 872.398 521.24 872.398 515.768V497.912C872.398 490.904 868.846 487.352 863.758 487.352C857.998 487.352 852.334 492.344 852.334 500.504V515.768C852.334 521.24 852.718 523.928 854.35 526.616V527H841.39V526.616C843.214 523.928 843.406 521.24 843.406 515.768ZM932.951 479.576V487.448L922.487 487.352V487.736C924.599 489.464 926.135 492.344 926.135 495.992C926.135 504.92 918.839 511.544 908.279 511.544C905.495 511.544 902.903 511.064 900.599 510.296C897.815 511.448 896.087 513.176 896.087 515.576C896.087 517.784 897.815 519.416 901.751 519.416H915.959C926.135 519.416 932.471 523.352 932.471 530.936C932.471 540.92 921.623 547.544 907.031 547.544C893.399 547.544 886.295 542.072 886.295 535.352C886.295 531.512 888.983 528.248 893.303 525.752V525.464C890.231 523.832 888.599 521.048 888.599 517.976C888.599 514.136 890.999 510.488 895.799 507.992V507.704C892.247 504.92 890.135 500.792 890.135 495.992C890.135 486.68 897.623 480.344 908.279 480.344C910.391 480.344 912.599 480.632 914.903 481.4L932.759 479.576H932.951ZM908.183 505.976C913.655 505.976 917.591 502.232 917.591 495.992C917.591 489.656 913.655 485.816 908.183 485.816C902.903 485.816 898.967 489.656 898.967 495.992C898.967 502.232 902.903 505.976 908.183 505.976ZM915.095 527H899.831C896.663 528.44 894.359 530.84 894.359 533.816C894.359 538.616 898.871 541.88 907.319 541.88C915.767 541.88 923.639 538.52 923.639 532.76C923.639 528.824 920.855 527 915.095 527ZM942.188 528.152C938.54 528.152 935.564 525.176 935.564 521.624C935.564 517.976 938.54 515.096 942.188 515.096C945.74 515.096 948.716 517.976 948.716 521.624C948.716 525.176 945.74 528.152 942.188 528.152Z" fill="#F6F0E5"/>
</g>
</g>
<defs>
<filter id="filter0_f_172_6322" x="-405.953" y="166.246" width="1961.91" height="1705.7" filterUnits="userSpaceOnUse" color-interpolation-filters="sRGB">
<feFlood flood-opacity="0" result="BackgroundImageFix"/>
<feBlend mode="normal" in="SourceGraphic" in2="BackgroundImageFix" result="shape"/>
<feGaussianBlur stdDeviation="129.576" result="effect1_foregroundBlur_172_6322"/>
</filter>
<filter id="filter1_f_172_6322" x="-220.602" y="451" width="1591.8" height="897" filterUnits="userSpaceOnUse" color-interpolation-filters="sRGB">
<feFlood flood-opacity="0" result="BackgroundImageFix"/>
<feBlend mode="normal" in="SourceGraphic" in2="BackgroundImageFix" result="shape"/>
<feGaussianBlur stdDeviation="60" result="effect1_foregroundBlur_172_6322"/>
</filter>
<filter id="filter2_f_172_6322" x="-196" y="539.199" width="1542.6" height="767.398" filterUnits="userSpaceOnUse" color-interpolation-filters="sRGB">
<feFlood flood-opacity="0" result="BackgroundImageFix"/>
<feBlend mode="normal" in="SourceGraphic" in2="BackgroundImageFix" result="shape"/>
<feGaussianBlur stdDeviation="69" result="effect1_foregroundBlur_172_6322"/>
</filter>
<filter id="filter3_f_172_6322" x="-552.082" y="512.773" width="2254.41" height="936.094" filterUnits="userSpaceOnUse" color-interpolation-filters="sRGB">
<feFlood flood-opacity="0" result="BackgroundImageFix"/>
<feBlend mode="normal" in="SourceGraphic" in2="BackgroundImageFix" result="shape"/>
<feGaussianBlur stdDeviation="172.094" result="effect1_foregroundBlur_172_6322"/>
</filter>
<clipPath id="clip0_172_6322">
<rect width="1150" height="900" fill="white"/>
</clipPath>
<clipPath id="clip1_172_6322">
<rect width="1152" height="900" fill="white" transform="translate(-1)"/>
</clipPath>
</defs>
</svg>
