<svg width="317" height="261" viewBox="0 0 317 261" fill="none" xmlns="http://www.w3.org/2000/svg">
<rect width="316.667" height="261" transform="translate(0.332031)" fill="#895BE7"/>
<path fill-rule="evenodd" clip-rule="evenodd" d="M102.76 131.479C102.808 131.443 102.817 131.375 102.781 131.329C99.6098 127.03 95.4456 123.481 90.6208 121.008C85.7947 118.534 80.3066 117.136 74.4863 117.136C55.2031 117.136 39.5736 132.481 39.5736 151.408H36.1484C36.1484 128.879 54.4122 110.615 76.9412 110.615C99.4703 110.615 117.734 128.879 117.734 151.408H85.045C85.045 144.907 79.6753 139.637 73.0535 139.637C66.4317 139.637 61.0619 144.907 61.0619 151.408H59.6079C59.6079 141.832 67.3714 134.069 76.9452 134.069C83.5856 134.069 89.3541 137.803 92.2676 143.286C92.2929 143.34 92.3567 143.364 92.4112 143.34C92.4643 143.315 92.4883 143.255 92.4657 143.202C89.289 136.371 82.2711 131.624 74.1221 131.624C62.9905 131.624 53.967 140.482 53.967 151.409H51.8616C51.8616 137.558 63.0995 126.328 76.9625 126.328C85.4451 126.328 92.9455 130.534 97.4885 136.971C97.5098 136.999 97.543 137.013 97.5749 137.013C97.5975 137.013 97.6214 137.007 97.64 136.992C97.6839 136.959 97.6945 136.898 97.6653 136.85C92.7873 129.424 84.2874 124.506 74.6166 124.506C59.4816 124.506 47.2096 136.551 47.2096 151.409H44.4848C44.4848 133.483 59.0323 118.952 76.9771 118.952C87.3923 118.952 96.6618 123.847 102.608 131.459C102.644 131.507 102.712 131.516 102.759 131.48L102.76 131.479Z" fill="white"/>
<path fill-rule="evenodd" clip-rule="evenodd" d="M143.943 112.906C139.11 112.906 136.099 115.501 136.099 119.333C136.099 123.165 138.201 125.267 145.065 128.172C153.608 131.757 157.601 134.539 157.601 140.904C157.601 147.269 151.577 152.029 142.473 152.029C134.069 152.029 128.535 149.062 127.695 141.151H130.497C131.828 147.332 135.819 149.125 142.123 149.125C147.446 149.125 150.947 146.714 150.947 142.203C150.947 138.061 148.916 136.146 141.072 133.179C133.088 130.089 129.867 126.875 129.867 121.003C129.867 115.131 135.047 110 143.452 110C150.175 110 154.868 113.029 155.92 119.828H153.118C152.068 114.821 148.566 112.906 143.944 112.906H143.943ZM171.12 110.618H164.879V151.411H171.12V110.618ZM178.399 110.62V151.411H203.061V148.321H184.642V110.62H178.399ZM238.412 110.618V151.408H235.013L211.906 120.628V151.408H208.506V110.618H211.906L235.013 141.401V110.618H238.412ZM262.628 110.618L276.851 144.89L279.557 151.412H272.749L270.714 146.401C268.808 142.494 264.761 139.793 260.185 139.793C253.835 139.793 248.668 144.833 248.505 151.11V151.116C248.501 151.214 248.501 151.313 248.501 151.41V151.411H247.6H243.857L246.453 145.063L260.542 110.618H262.628ZM252.2 139.851C255.265 137.139 259.438 135.585 263.971 135.585C264.791 135.585 265.598 135.644 266.386 135.757L259.989 120.067L252.506 139.082L252.2 139.851Z" fill="white"/>
</svg>
