<svg width="317" height="261" viewBox="0 0 317 261" fill="none" xmlns="http://www.w3.org/2000/svg">
<rect width="316.667" height="261" fill="#895BE7"/>
<path d="M183.338 131.341C183.374 131.388 183.365 131.455 183.317 131.49C183.27 131.526 183.203 131.516 183.168 131.469C177.263 123.912 168.061 119.052 157.722 119.052C139.906 119.052 125.464 133.479 125.464 151.275H128.169C128.169 136.525 140.351 124.567 155.377 124.567C164.978 124.567 173.416 129.45 178.259 136.822C178.287 136.869 178.277 136.929 178.233 136.963C178.214 136.977 178.191 136.984 178.169 136.984C178.136 136.984 178.104 136.969 178.083 136.941C173.573 130.551 166.127 126.376 157.706 126.376C143.944 126.376 132.787 137.524 132.787 151.275H134.877C134.877 140.428 143.836 131.633 154.886 131.633C162.976 131.633 169.944 136.346 173.097 143.127C173.118 143.18 173.095 143.24 173.042 143.265C172.989 143.289 172.925 143.265 172.901 143.211C170.009 137.769 164.282 134.062 157.689 134.062C148.184 134.062 140.477 141.769 140.477 151.275H141.921C141.921 144.821 147.251 139.589 153.826 139.589C160.4 139.589 165.731 144.821 165.731 151.275H198.184C198.184 128.909 180.052 110.777 157.686 110.777C135.319 110.777 117.188 128.909 117.188 151.275H120.588C120.588 132.485 136.105 117.251 155.248 117.251C161.027 117.251 166.475 118.639 171.266 121.095C176.056 123.55 180.19 127.073 183.338 131.341Z" fill="white"/>
</svg>
