<svg width="96" height="96" viewBox="0 0 96 96" fill="none" xmlns="http://www.w3.org/2000/svg">
<path d="M77.1317 50.1398C68.1857 59.1237 57.8864 69.5268 49.01 78.544H47.2296C38.2218 69.6656 28.8356 60.2645 19.8983 51.2955C19.6001 50.9878 19.0915 50.499 18.7986 50.1831C12.8673 44.0561 11.771 34.5047 16.0912 27.1526C17.4165 24.8656 19.2335 22.8538 21.3574 21.2818C29.9842 14.8472 42.4226 16.7437 48.8238 25.3755C49.5446 26.3359 50.1747 27.3651 50.7117 28.4412C50.7125 28.4412 45.5262 28.4412 45.5266 28.4412C47.1439 25.2548 49.6261 22.5284 52.6416 20.6303C63.3552 13.8942 77.5979 18.8462 81.5841 30.9086C82.1862 32.7903 82.5263 34.7584 82.5321 36.7332L82.5338 37.2472L82.5123 37.7608C82.507 37.9152 82.4983 38.1223 82.4843 38.2739C82.1598 42.6979 80.2427 46.9761 77.1312 50.1398H77.1317ZM74.5235 47.6482C76.9134 45.0429 78.3416 41.5719 78.4784 38.0408C78.4903 37.8159 78.4846 37.4609 78.4899 37.2311C78.4776 36.9923 78.4722 36.657 78.4541 36.4227C78.3248 34.6806 77.903 32.9542 77.1881 31.362C74.7216 25.7284 68.8043 22.1561 62.6711 22.6508C62.4759 22.6722 62.2791 22.6833 62.0871 22.7055C61.8915 22.7323 61.5979 22.7751 61.4097 22.8015C61.2334 22.834 60.9126 22.8979 60.738 22.9292C59.2833 23.2557 57.8633 23.7833 56.5771 24.532L56.2415 24.7256C56.0792 24.8319 55.8288 24.9912 55.6715 25.0921C53.5242 26.555 51.7858 28.5969 50.7125 30.9625H45.5271C41.5829 22.6685 31.0484 20.1884 23.7621 25.7416C20.8414 27.9738 18.8448 31.2417 18.2208 34.8754C17.442 39.1791 18.7093 43.8041 21.5872 47.1099C21.7281 47.2677 21.906 47.4859 22.0526 47.6354C26.5087 52.433 32.0298 58.3721 36.4785 63.1943C40.5471 67.5689 44.9929 72.45 49.01 76.8308H47.2296C55.8992 67.6303 65.8892 56.9171 74.5239 47.6482H74.5235Z" fill="#1E0525"/>
</svg>
