<svg width="485" height="400" viewBox="0 0 485 400" fill="none" xmlns="http://www.w3.org/2000/svg">
<rect width="485" height="400" fill="white"/>
<path d="M276.785 200.454C276.832 200.516 276.82 200.606 276.756 200.653C276.694 200.701 276.604 200.688 276.557 200.625C268.684 190.549 256.415 184.07 242.629 184.07C218.875 184.07 199.619 203.305 199.619 227.033H203.225C203.225 207.366 219.468 191.423 239.502 191.423C252.304 191.423 263.555 197.933 270.012 207.762C270.049 207.825 270.036 207.905 269.978 207.95C269.953 207.969 269.921 207.978 269.891 207.978C269.848 207.978 269.805 207.959 269.777 207.922C263.764 199.401 253.836 193.835 242.608 193.835C224.258 193.835 209.382 208.699 209.382 227.033H212.169C212.169 212.57 224.114 200.844 238.849 200.844C249.635 200.844 258.925 207.128 263.129 216.17C263.158 216.24 263.126 216.32 263.056 216.353C262.985 216.385 262.9 216.353 262.867 216.281C259.011 209.025 251.375 204.082 242.586 204.082C229.911 204.082 219.636 214.358 219.636 227.033H221.561C221.561 218.428 228.668 211.452 237.434 211.452C246.2 211.452 253.308 218.428 253.308 227.033H296.578C296.578 197.211 272.403 173.036 242.581 173.036C212.759 173.036 188.584 197.211 188.584 227.033H193.117C193.117 201.98 213.807 181.668 239.331 181.668C247.036 181.668 254.299 183.519 260.688 186.793C267.075 190.066 272.586 194.764 276.785 200.454Z" fill="url(#paint0_linear_162_5639)"/>
<defs>
<linearGradient id="paint0_linear_162_5639" x1="188.584" y1="200.035" x2="296.578" y2="200.035" gradientUnits="userSpaceOnUse">
<stop stop-color="#4C3FAB"/>
<stop offset="0.09" stop-color="#6A4CC9"/>
<stop offset="0.18" stop-color="#8056DF"/>
<stop offset="0.24" stop-color="#885AE7"/>
<stop offset="0.34" stop-color="#9765E1"/>
<stop offset="0.54" stop-color="#C184D3"/>
<stop offset="0.79" stop-color="#FFB3BE"/>
<stop offset="0.86" stop-color="#FEB8C2"/>
<stop offset="0.94" stop-color="#FCC9CF"/>
<stop offset="1" stop-color="#FBD9DC"/>
</linearGradient>
</defs>
</svg>
