<svg width="96" height="96" viewBox="0 0 96 96" fill="none" xmlns="http://www.w3.org/2000/svg">
<path d="M39.0148 68.4434C39.2344 71.8403 41.6129 74.9611 44.8457 75.9583C49.8537 77.5967 55.2386 73.7958 54.7403 68.4434H61.2203C61.1311 70.1616 60.703 71.8698 59.9621 73.4167C57.8468 77.9567 52.9475 80.954 47.9576 80.6257C44.8396 80.468 41.7724 79.0072 39.7251 76.6758C37.7217 74.4406 36.6586 71.4054 36.8552 68.4434H39.0152H39.0148Z" fill="#1E0525"/>
<path d="M48.0023 26.7988C61.8879 26.7988 73.1609 37.4027 73.1609 50.4632V59.9043H22.8438V50.4632C22.8438 37.4024 34.1171 26.7988 48.0023 26.7988Z" stroke="#1E0525" stroke-width="4.536" stroke-linejoin="bevel"/>
<path d="M42.9219 28.5691V16.6855H53.0224V28.5691" stroke="#1E0525" stroke-width="4.53599" stroke-linejoin="bevel"/>
</svg>
