<svg width="486" height="400" viewBox="0 0 486 400" fill="none" xmlns="http://www.w3.org/2000/svg">
<g clip-path="url(#clip0_165_7086)">
<rect width="485.5" height="400" fill="#FDF8F3"/>
<path d="M21.728 41V40.904C22.28 40.136 22.496 39.104 22.496 37.424V28.016C22.496 26.288 22.352 25.256 21.728 24.416V24.32H25.616V24.416C24.992 25.256 24.848 26.288 24.848 28.016V39.344H29.096C31.016 39.344 32.216 39.056 32.816 37.616H32.936V41H21.728ZM35.7337 27.536C34.8217 27.536 34.1497 26.84 34.1497 25.952C34.1497 25.112 34.8217 24.392 35.7337 24.392C36.5497 24.392 37.2457 25.112 37.2457 25.952C37.2457 26.84 36.5737 27.536 35.7337 27.536ZM36.8377 29.552V38.192C36.8377 39.56 36.9097 40.232 37.3657 40.904V41H34.1257V40.904C34.5817 40.232 34.6297 39.56 34.6297 38.192V32.504C34.6297 31.256 34.4857 30.608 34.0297 29.984V29.84L36.7657 29.552H36.8377ZM50.2006 29.144V31.112L47.5846 31.088V31.184C48.1126 31.616 48.4966 32.336 48.4966 33.248C48.4966 35.48 46.6726 37.136 44.0326 37.136C43.3366 37.136 42.6886 37.016 42.1126 36.824C41.4166 37.112 40.9846 37.544 40.9846 38.144C40.9846 38.696 41.4166 39.104 42.4006 39.104H45.9526C48.4966 39.104 50.0806 40.088 50.0806 41.984C50.0806 44.48 47.3686 46.136 43.7206 46.136C40.3126 46.136 38.5366 44.768 38.5366 43.088C38.5366 42.128 39.2086 41.312 40.2886 40.688V40.616C39.5206 40.208 39.1126 39.512 39.1126 38.744C39.1126 37.784 39.7126 36.872 40.9126 36.248V36.176C40.0246 35.48 39.4966 34.448 39.4966 33.248C39.4966 30.92 41.3686 29.336 44.0326 29.336C44.5606 29.336 45.1126 29.408 45.6886 29.6L50.1526 29.144H50.2006ZM44.0086 35.744C45.3766 35.744 46.3606 34.808 46.3606 33.248C46.3606 31.664 45.3766 30.704 44.0086 30.704C42.6886 30.704 41.7046 31.664 41.7046 33.248C41.7046 34.808 42.6886 35.744 44.0086 35.744ZM45.7366 41H41.9206C41.1286 41.36 40.5526 41.96 40.5526 42.704C40.5526 43.904 41.6806 44.72 43.7926 44.72C45.9046 44.72 47.8726 43.88 47.8726 42.44C47.8726 41.456 47.1766 41 45.7366 41ZM51.9324 38.168V27.056C51.9324 25.712 51.7884 24.944 51.3324 24.296V24.176L54.0684 23.888H54.1404V31.304H54.2604C55.0764 30.056 56.2044 29.336 57.6684 29.336C59.7564 29.336 61.3884 30.8 61.3884 33.68V38.168C61.3884 39.536 61.4604 40.232 61.9164 40.904V41H58.6764V40.904C59.0844 40.232 59.1564 39.536 59.1564 38.168V33.728C59.1564 32 58.3404 31.088 56.9964 31.088C55.5324 31.088 54.1404 32.408 54.1404 34.376V38.168C54.1404 39.536 54.2364 40.232 54.6684 40.904V41H51.4284V40.904C51.8844 40.232 51.9324 39.536 51.9324 38.168ZM68.0334 41.288C66.1854 41.288 64.8894 40.232 64.8894 37.928V31.208H62.5614V29.816C64.8654 29.768 65.2254 29.36 65.3214 26.816H67.0974V29.624H70.3134V31.208H67.0974V37.856C67.0974 39.08 67.6014 39.632 68.6814 39.632C69.2094 39.632 69.7134 39.536 70.2174 39.272L70.4574 40.472C69.7854 40.976 68.9454 41.288 68.0334 41.288Z" fill="#1E0525"/>
<g filter="url(#filter0_f_165_7086)">
<ellipse cx="242.904" cy="430.2" rx="420.299" ry="326.2" fill="#F8C2F7" fill-opacity="0.7"/>
</g>
<g filter="url(#filter1_f_165_7086)">
<ellipse cx="243" cy="448.926" rx="450" ry="274.225" fill="#FFA89D" fill-opacity="0.5"/>
</g>
<g filter="url(#filter2_f_165_7086)">
<ellipse cx="242.903" cy="388.625" rx="341.118" ry="131.787" fill="#D36E97" fill-opacity="0.9"/>
</g>
</g>
<defs>
<filter id="filter0_f_165_7086" x="-247.395" y="34" width="980.598" height="792.4" filterUnits="userSpaceOnUse" color-interpolation-filters="sRGB">
<feFlood flood-opacity="0" result="BackgroundImageFix"/>
<feBlend mode="normal" in="SourceGraphic" in2="BackgroundImageFix" result="shape"/>
<feGaussianBlur stdDeviation="35" result="effect1_foregroundBlur_165_7086"/>
</filter>
<filter id="filter1_f_165_7086" x="-277" y="104.701" width="1040" height="688.449" filterUnits="userSpaceOnUse" color-interpolation-filters="sRGB">
<feFlood flood-opacity="0" result="BackgroundImageFix"/>
<feBlend mode="normal" in="SourceGraphic" in2="BackgroundImageFix" result="shape"/>
<feGaussianBlur stdDeviation="35" result="effect1_foregroundBlur_165_7086"/>
</filter>
<filter id="filter2_f_165_7086" x="-161.215" y="193.838" width="808.234" height="389.574" filterUnits="userSpaceOnUse" color-interpolation-filters="sRGB">
<feFlood flood-opacity="0" result="BackgroundImageFix"/>
<feBlend mode="normal" in="SourceGraphic" in2="BackgroundImageFix" result="shape"/>
<feGaussianBlur stdDeviation="31.5" result="effect1_foregroundBlur_165_7086"/>
</filter>
<clipPath id="clip0_165_7086">
<rect width="485.5" height="400" fill="white"/>
</clipPath>
</defs>
</svg>
