<svg width="485" height="400" viewBox="0 0 485 400" fill="none" xmlns="http://www.w3.org/2000/svg">
<rect width="485" height="400" fill="white"/>
<path fill-rule="evenodd" clip-rule="evenodd" d="M168.948 200.638C169.012 200.591 169.024 200.5 168.976 200.438C164.748 194.707 159.196 189.975 152.763 186.677C146.328 183.379 139.01 181.515 131.25 181.515C105.539 181.515 84.6998 201.975 84.6998 227.211H80.1328C80.1328 197.172 104.485 172.82 134.523 172.82C164.562 172.82 188.914 197.172 188.914 227.211H145.328C145.328 218.543 138.169 211.516 129.34 211.516C120.51 211.516 113.351 218.543 113.351 227.211H111.412C111.412 214.442 121.763 204.092 134.529 204.092C143.382 204.092 151.074 209.071 154.958 216.381C154.992 216.453 155.077 216.485 155.15 216.453C155.221 216.42 155.253 216.34 155.222 216.269C150.987 207.162 141.63 200.832 130.764 200.832C115.922 200.832 103.891 212.643 103.891 227.212H101.084C101.084 208.744 116.068 193.771 134.552 193.771C145.862 193.771 155.862 199.378 161.92 207.961C161.948 207.998 161.992 208.018 162.035 208.018C162.065 208.018 162.097 208.009 162.122 207.989C162.18 207.945 162.194 207.864 162.155 207.8C155.651 197.899 144.318 191.342 131.424 191.342C111.244 191.342 94.881 207.401 94.881 227.212H91.248C91.248 203.311 110.645 183.936 134.571 183.936C148.458 183.936 160.817 190.462 168.746 200.612C168.794 200.676 168.884 200.688 168.946 200.64L168.948 200.638Z" fill="url(#paint0_linear_162_5625)"/>
<path fill-rule="evenodd" clip-rule="evenodd" d="M223.859 175.874C217.415 175.874 213.401 179.335 213.401 184.444C213.401 189.554 216.203 192.355 225.354 196.229C236.746 201.009 242.07 204.718 242.07 213.205C242.07 221.692 234.038 228.039 221.899 228.039C210.693 228.039 203.315 224.083 202.195 213.535H205.931C207.705 221.776 213.027 224.166 221.432 224.166C228.53 224.166 233.198 220.952 233.198 214.937C233.198 209.415 230.49 206.861 220.031 202.905C209.385 198.785 205.091 194.5 205.091 186.67C205.091 178.841 211.997 172 223.205 172C232.168 172 238.426 176.039 239.828 185.104H236.092C234.692 178.428 230.022 175.874 223.86 175.874H223.859ZM260.095 172.824H251.773V227.214H260.095V172.824ZM269.8 172.826V227.215H302.683V223.095H278.124V172.826H269.8ZM349.817 172.824V227.211H345.286L314.476 186.17V227.211H309.943V172.824H314.476L345.286 213.868V172.824H349.817ZM382.105 172.824L401.069 218.52L404.677 227.216H395.6L392.887 220.535C390.346 215.325 384.949 211.724 378.848 211.724C370.382 211.724 363.492 218.444 363.275 226.814V226.821C363.27 226.952 363.27 227.084 363.27 227.213V227.214H362.069H357.078L360.539 218.75L379.324 172.824H382.105ZM368.202 211.802C372.289 208.185 377.854 206.113 383.899 206.113H383.897C384.99 206.113 386.066 206.193 387.117 206.343L378.587 185.422L368.61 210.775L368.202 211.802Z" fill="#1E0525"/>
<defs>
<linearGradient id="paint0_linear_162_5625" x1="80.1328" y1="200.016" x2="188.914" y2="200.016" gradientUnits="userSpaceOnUse">
<stop stop-color="#4C3FAB"/>
<stop offset="0.09" stop-color="#6A4CC9"/>
<stop offset="0.18" stop-color="#8056DF"/>
<stop offset="0.24" stop-color="#885AE7"/>
<stop offset="0.34" stop-color="#9765E1"/>
<stop offset="0.54" stop-color="#C184D3"/>
<stop offset="0.79" stop-color="#FFB3BE"/>
<stop offset="0.86" stop-color="#FEB8C2"/>
<stop offset="0.94" stop-color="#FCC9CF"/>
<stop offset="1" stop-color="#FBD9DC"/>
</linearGradient>
</defs>
</svg>
