<svg width="317" height="261" viewBox="0 0 317 261" fill="none" xmlns="http://www.w3.org/2000/svg">
<rect width="316.667" height="261" transform="translate(0.332031)" fill="#1E0525"/>
<path d="M183.67 131.341C183.706 131.388 183.697 131.455 183.649 131.49C183.602 131.526 183.535 131.516 183.5 131.469C177.595 123.912 168.393 119.052 158.054 119.052C140.238 119.052 125.796 133.479 125.796 151.275H128.501C128.501 136.525 140.683 124.567 155.709 124.567C165.31 124.567 173.748 129.45 178.591 136.822C178.619 136.869 178.609 136.929 178.565 136.963C178.546 136.977 178.523 136.984 178.501 136.984C178.468 136.984 178.436 136.969 178.415 136.941C173.905 130.551 166.459 126.376 158.038 126.376C144.276 126.376 133.119 137.524 133.119 151.275H135.209C135.209 140.428 144.168 131.633 155.219 131.633C163.308 131.633 170.276 136.346 173.429 143.127C173.45 143.18 173.427 143.24 173.374 143.265C173.321 143.289 173.257 143.265 173.233 143.211C170.341 137.769 164.614 134.062 158.021 134.062C148.516 134.062 140.809 141.769 140.809 151.275H142.253C142.253 144.821 147.583 139.589 154.158 139.589C160.732 139.589 166.063 144.821 166.063 151.275H198.516C198.516 128.909 180.384 110.777 158.018 110.777C135.651 110.777 117.52 128.909 117.52 151.275H120.92C120.92 132.485 136.437 117.251 155.58 117.251C161.359 117.251 166.807 118.639 171.598 121.095C176.388 123.55 180.522 127.073 183.67 131.341Z" fill="url(#paint0_linear_163_5669)"/>
<defs>
<linearGradient id="paint0_linear_163_5669" x1="117.52" y1="131.026" x2="198.516" y2="131.026" gradientUnits="userSpaceOnUse">
<stop stop-color="#4C3FAB"/>
<stop offset="0.09" stop-color="#6A4CC9"/>
<stop offset="0.18" stop-color="#8056DF"/>
<stop offset="0.24" stop-color="#885AE7"/>
<stop offset="0.34" stop-color="#9765E1"/>
<stop offset="0.54" stop-color="#C184D3"/>
<stop offset="0.79" stop-color="#FFB3BE"/>
<stop offset="0.86" stop-color="#FEB8C2"/>
<stop offset="0.94" stop-color="#FCC9CF"/>
<stop offset="1" stop-color="#FBD9DC"/>
</linearGradient>
</defs>
</svg>
