<svg width="318" height="261" viewBox="0 0 318 261" fill="none" xmlns="http://www.w3.org/2000/svg">
<rect width="316.667" height="261" transform="translate(0.667969)" fill="#1E0525"/>
<path fill-rule="evenodd" clip-rule="evenodd" d="M103.096 131.479C103.144 131.443 103.153 131.375 103.117 131.329C99.9458 127.03 95.7815 123.481 90.9567 121.008C86.1306 118.534 80.6426 117.136 74.8222 117.136C55.539 117.136 39.9096 132.481 39.9096 151.408H36.4844C36.4844 128.879 54.7482 110.615 77.2772 110.615C99.8062 110.615 118.07 128.879 118.07 151.408H85.381C85.381 144.907 80.0112 139.637 73.3894 139.637C66.7676 139.637 61.3979 144.907 61.3979 151.408H59.9438C59.9438 141.832 67.7073 134.069 77.2812 134.069C83.9216 134.069 89.6901 137.803 92.6036 143.286C92.6288 143.34 92.6926 143.364 92.7471 143.34C92.8003 143.315 92.8242 143.255 92.8016 143.202C89.6249 136.371 82.6071 131.624 74.4581 131.624C63.3265 131.624 54.3029 140.482 54.3029 151.409H52.1975C52.1975 137.558 63.4355 126.328 77.2984 126.328C85.7811 126.328 93.2814 130.534 97.8244 136.971C97.8457 136.999 97.8789 137.013 97.9108 137.013C97.9334 137.013 97.9574 137.007 97.976 136.992C98.0198 136.959 98.0305 136.898 98.0012 136.85C93.1232 129.424 84.6234 124.506 74.9525 124.506C59.8175 124.506 47.5455 136.551 47.5455 151.409H44.8208C44.8208 133.483 59.3683 118.952 77.3131 118.952C87.7282 118.952 96.9977 123.847 102.944 131.459C102.98 131.507 103.048 131.516 103.094 131.48L103.096 131.479Z" fill="url(#paint0_linear_163_5673)"/>
<path fill-rule="evenodd" clip-rule="evenodd" d="M144.279 112.906C139.446 112.906 136.435 115.501 136.435 119.333C136.435 123.165 138.537 125.267 145.401 128.172C153.944 131.757 157.937 134.539 157.937 140.904C157.937 147.269 151.913 152.029 142.809 152.029C134.405 152.029 128.871 149.062 128.031 141.151H130.833C132.164 147.332 136.155 149.125 142.459 149.125C147.782 149.125 151.283 146.714 151.283 142.203C151.283 138.061 149.252 136.146 141.408 133.179C133.424 130.089 130.203 126.875 130.203 121.003C130.203 115.131 135.383 110 143.788 110C150.511 110 155.204 113.029 156.256 119.828H153.454C152.404 114.821 148.901 112.906 144.28 112.906H144.279ZM171.456 110.618H165.215V151.411H171.456V110.618ZM178.735 110.62V151.411H203.397V148.321H184.978V110.62H178.735ZM238.748 110.618V151.408H235.349L212.242 120.628V151.408H208.842V110.618H212.242L235.349 141.401V110.618H238.748ZM262.964 110.618L277.187 144.89L279.893 151.412H273.085L271.05 146.401C269.144 142.494 265.097 139.793 260.521 139.793C254.171 139.793 249.004 144.833 248.841 151.11V151.116C248.837 151.214 248.837 151.313 248.837 151.41V151.411H247.936H244.193L246.789 145.063L260.878 110.618H262.964ZM252.536 139.851C255.601 137.139 259.774 135.585 264.307 135.585C265.127 135.585 265.934 135.644 266.722 135.757L260.325 120.067L252.842 139.082L252.536 139.851Z" fill="white"/>
<defs>
<linearGradient id="paint0_linear_163_5673" x1="36.4844" y1="131.012" x2="118.07" y2="131.012" gradientUnits="userSpaceOnUse">
<stop stop-color="#4C3FAB"/>
<stop offset="0.09" stop-color="#6A4CC9"/>
<stop offset="0.18" stop-color="#8056DF"/>
<stop offset="0.24" stop-color="#885AE7"/>
<stop offset="0.34" stop-color="#9765E1"/>
<stop offset="0.54" stop-color="#C184D3"/>
<stop offset="0.79" stop-color="#FFB3BE"/>
<stop offset="0.86" stop-color="#FEB8C2"/>
<stop offset="0.94" stop-color="#FCC9CF"/>
<stop offset="1" stop-color="#FBD9DC"/>
</linearGradient>
</defs>
</svg>
