<svg width="96" height="96" viewBox="0 0 96 96" fill="none" xmlns="http://www.w3.org/2000/svg">
<g clip-path="url(#clip0_168_6322)">
<path d="M17.318 82.201C16.8204 65.8438 30.3221 52.1376 46.7936 51.8229C61.5542 51.368 74.8078 61.8228 77.9387 76.0724C78.3922 78.0819 78.6446 80.1391 78.6964 82.2014H71.4144C71.9128 68.5009 60.5925 56.9424 46.7936 56.6288C36.3742 56.2071 26.2571 62.6093 22.0792 72.0694C20.6358 75.2462 19.8453 78.7098 19.7454 82.2018H17.318V82.201Z" fill="#1E0525"/>
<path d="M69.0781 34.6156C69.2019 40.4211 66.8138 46.2134 62.6178 50.2733C49.9847 62.4372 28.8155 56.0551 25.6478 38.7788C23.6089 27.4734 31.3068 16.3482 42.6987 14.1981C55.6881 11.6873 68.9179 21.1938 69.0781 34.6156ZM64.145 34.6156C64.3893 26.3501 58.7777 18.3517 50.4228 16.5957C40.4995 14.4605 30.5482 21.1834 28.8855 31.0864C27.529 38.7272 31.488 46.5334 38.4933 50.0041C50.2254 55.8561 63.8367 47.5297 64.145 34.6156Z" fill="#1E0525"/>
</g>
<defs>
<clipPath id="clip0_168_6322">
<rect width="61.3913" height="68.4075" fill="white" transform="translate(17.3047 13.7949)"/>
</clipPath>
</defs>
</svg>
