<svg width="318" height="261" viewBox="0 0 318 261" fill="none" xmlns="http://www.w3.org/2000/svg">
<rect width="316.667" height="261" transform="translate(0.667969)" fill="white"/>
<path d="M184.006 131.341C184.042 131.388 184.033 131.455 183.985 131.49C183.938 131.526 183.871 131.516 183.836 131.469C177.931 123.912 168.729 119.052 158.389 119.052C140.574 119.052 126.132 133.479 126.132 151.275H128.837C128.837 136.525 141.019 124.567 156.045 124.567C165.646 124.567 174.084 129.45 178.927 136.822C178.955 136.869 178.945 136.929 178.901 136.963C178.882 136.977 178.859 136.984 178.837 136.984C178.804 136.984 178.772 136.969 178.751 136.941C174.241 130.551 166.795 126.376 158.374 126.376C144.612 126.376 133.455 137.524 133.455 151.275H135.545C135.545 140.428 144.503 131.633 155.554 131.633C163.644 131.633 170.612 136.346 173.765 143.127C173.786 143.18 173.763 143.24 173.71 143.265C173.657 143.289 173.593 143.265 173.568 143.211C170.677 137.769 164.949 134.062 158.357 134.062C148.852 134.062 141.145 141.769 141.145 151.275H142.589C142.589 144.821 147.919 139.589 154.494 139.589C161.068 139.589 166.399 144.821 166.399 151.275H198.852C198.852 128.909 180.72 110.777 158.354 110.777C135.987 110.777 117.856 128.909 117.856 151.275H121.256C121.256 132.485 136.773 117.251 155.916 117.251C161.695 117.251 167.142 118.639 171.934 121.095C176.724 123.55 180.858 127.073 184.006 131.341Z" fill="black"/>
</svg>
