<svg width="317" height="261" viewBox="0 0 317 261" fill="none" xmlns="http://www.w3.org/2000/svg">
<rect width="316.667" height="261" fill="white"/>
<path fill-rule="evenodd" clip-rule="evenodd" d="M102.428 131.479C102.476 131.443 102.485 131.375 102.449 131.329C99.2778 127.03 95.1136 123.481 90.2888 121.008C85.4626 118.534 79.9746 117.136 74.1543 117.136C54.871 117.136 39.2416 132.481 39.2416 151.408H35.8164C35.8164 128.879 54.0802 110.615 76.6092 110.615C99.1382 110.615 117.402 128.879 117.402 151.408H84.713C84.713 144.907 79.3433 139.637 72.7215 139.637C66.0997 139.637 60.7299 144.907 60.7299 151.408H59.2758C59.2758 141.832 67.0394 134.069 76.6132 134.069C83.2536 134.069 89.0221 137.803 91.9356 143.286C91.9608 143.34 92.0246 143.364 92.0791 143.34C92.1323 143.315 92.1562 143.255 92.1336 143.202C88.957 136.371 81.9391 131.624 73.7901 131.624C62.6585 131.624 53.6349 140.482 53.6349 151.409H51.5296C51.5296 137.558 62.7675 126.328 76.6305 126.328C85.1131 126.328 92.6134 130.534 97.1565 136.971C97.1777 136.999 97.211 137.013 97.2429 137.013C97.2655 137.013 97.2894 137.007 97.308 136.992C97.3519 136.959 97.3625 136.898 97.3332 136.85C92.4553 129.424 83.9554 124.506 74.2845 124.506C59.1496 124.506 46.8776 136.551 46.8776 151.409H44.1528C44.1528 133.483 58.7003 118.952 76.6451 118.952C87.0603 118.952 96.3297 123.847 102.276 131.459C102.312 131.507 102.38 131.516 102.427 131.48L102.428 131.479Z" fill="url(#paint0_linear_163_5675)"/>
<path fill-rule="evenodd" clip-rule="evenodd" d="M143.611 112.906C138.778 112.906 135.767 115.501 135.767 119.333C135.767 123.165 137.869 125.267 144.733 128.172C153.276 131.757 157.269 134.539 157.269 140.904C157.269 147.269 151.245 152.029 142.141 152.029C133.737 152.029 128.203 149.062 127.363 141.151H130.165C131.496 147.332 135.487 149.125 141.791 149.125C147.114 149.125 150.615 146.714 150.615 142.203C150.615 138.061 148.584 136.146 140.74 133.179C132.756 130.089 129.535 126.875 129.535 121.003C129.535 115.131 134.715 110 143.12 110C149.843 110 154.536 113.029 155.588 119.828H152.786C151.736 114.821 148.234 112.906 143.612 112.906H143.611ZM170.788 110.618H164.547V151.411H170.788V110.618ZM178.067 110.62V151.411H202.729V148.321H184.31V110.62H178.067ZM238.08 110.618V151.408H234.681L211.574 120.628V151.408H208.174V110.618H211.574L234.681 141.401V110.618H238.08ZM262.296 110.618L276.519 144.89L279.225 151.412H272.417L270.382 146.401C268.476 142.494 264.429 139.793 259.853 139.793C253.503 139.793 248.336 144.833 248.173 151.11V151.116C248.169 151.214 248.169 151.313 248.169 151.41V151.411H247.268H243.525L246.121 145.063L260.21 110.618H262.296ZM251.868 139.851C254.933 137.139 259.106 135.585 263.639 135.585C264.459 135.585 265.266 135.644 266.054 135.757L259.657 120.067L252.174 139.082L251.868 139.851Z" fill="#1E0525"/>
<defs>
<linearGradient id="paint0_linear_163_5675" x1="35.8164" y1="131.012" x2="117.402" y2="131.012" gradientUnits="userSpaceOnUse">
<stop stop-color="#4C3FAB"/>
<stop offset="0.09" stop-color="#6A4CC9"/>
<stop offset="0.18" stop-color="#8056DF"/>
<stop offset="0.24" stop-color="#885AE7"/>
<stop offset="0.34" stop-color="#9765E1"/>
<stop offset="0.54" stop-color="#C184D3"/>
<stop offset="0.79" stop-color="#FFB3BE"/>
<stop offset="0.86" stop-color="#FEB8C2"/>
<stop offset="0.94" stop-color="#FCC9CF"/>
<stop offset="1" stop-color="#FBD9DC"/>
</linearGradient>
</defs>
</svg>
